<?xml version="1.0" encoding="utf-8"?>
<!-- Generator: Adobe Illustrator 19.0.0, SVG Export Plug-In . SVG Version: 6.00 Build 0)  -->
<svg version="1.1" id="Layer_1" xmlns="http://www.w3.org/2000/svg" xmlns:xlink="http://www.w3.org/1999/xlink" x="0px" y="0px"
	 viewBox="-1715 1285 24 24" style="enable-background:new -1715 1285 24 24;" xml:space="preserve">
<style type="text/css">
	.st0{fill-opacity:0;}
	.st1{fill:#2E2E2D;}
</style>
<g>
	<g>
		<rect x="-1715" y="1285" class="st0" width="24" height="24"/>
		<path class="st1" d="M-1694.9,1291.7l-2.8-2.8c-0.6-0.6-1.3-0.9-2.1-0.9h-6.3c-0.8,0-1.6,0.3-2.1,0.9l-2.8,2.8
			c-0.6,0.6-0.9,1.3-0.9,2.1v9.2c0,1.7,1.3,3,3,3h12c1.7,0,3-1.3,3-3v-9.2C-1694,1293-1694.3,1292.3-1694.9,1291.7z M-1706.9,1290.3
			c0.2-0.2,0.4-0.3,0.7-0.3h6.3c0.3,0,0.5,0.1,0.7,0.3l1.7,1.7h-11.2L-1706.9,1290.3z M-1697,1304h-12c-0.6,0-1-0.4-1-1v-9h14v9
			C-1696,1303.6-1696.4,1304-1697,1304z"/>
		<path class="st1" d="M-1700,1296c-0.6,0-1,0.4-1,1c0,1.1-0.9,2-2,2s-2-0.9-2-2c0-0.6-0.4-1-1-1s-1,0.4-1,1c0,2.2,1.8,4,4,4
			s4-1.8,4-4C-1699,1296.4-1699.4,1296-1700,1296z"/>
	</g>
</g>
</svg>
