<?xml version="1.0" encoding="utf-8"?>
<!-- Generator: Adobe Illustrator 19.0.0, SVG Export Plug-In . SVG Version: 6.00 Build 0)  -->
<svg version="1.1" id="Layer_1" xmlns="http://www.w3.org/2000/svg" xmlns:xlink="http://www.w3.org/1999/xlink" x="0px" y="0px"
	 viewBox="0 0 20 20" style="enable-background:new 0 0 20 20;" xml:space="preserve">
<style type="text/css">
	.st0{fill-rule:evenodd;clip-rule:evenodd;fill:#FFFFFF;}
</style>
<g id="XMLID_4_">
	<path id="XMLID_6_" class="st0" d="M12.4,4.9c0.5,0,1,0,1.5,0c0.1,0,0.1,0,0.2,0V2.3c-0.3,0-0.5-0.1-0.8-0.1c-0.5,0-1,0-1.5,0
		c-0.8,0-1.5,0.2-2.1,0.7C9,3.4,8.6,4.1,8.4,5C8.4,5.3,8.3,5.7,8.3,6.1c0,0.6,0,1.1,0,1.7V8H5.9v2.8h2.4v7.1h2.9v-7.1h2.4
		C13.8,9.8,13.9,8.9,14,8c-0.2,0-0.4,0-0.5,0c-0.7,0-2.2,0-2.2,0s0-1.4,0-2C11.3,5.1,11.8,4.9,12.4,4.9z"/>
</g>
</svg>
