<?xml version="1.0" encoding="utf-8"?>
<!-- Generator: Adobe Illustrator 19.0.0, SVG Export Plug-In . SVG Version: 6.00 Build 0)  -->
<svg version="1.1" id="Layer_1" xmlns="http://www.w3.org/2000/svg" xmlns:xlink="http://www.w3.org/1999/xlink" x="0px" y="0px"
	 viewBox="-293 385 24 24" style="enable-background:new -293 385 24 24;" xml:space="preserve">
<style type="text/css">
	.st0{fill:none;}
	.st1{fill:#CCCCCC;}
</style>
<g>
	<path class="st0" d="M-293,385h24v24h-24V385z"/>
	<path class="st1" d="M-281,387c2.7,0,3.1,0,4.1,0.1c1.1,0,1.8,0.2,2.4,0.5c0.7,0.3,1.2,0.6,1.8,1.2c0.5,0.5,0.9,1.1,1.2,1.8
		c0.2,0.6,0.4,1.4,0.5,2.4c0,1.1,0.1,1.4,0.1,4.1s0,3.1-0.1,4.1c0,1.1-0.2,1.8-0.5,2.4c-0.3,0.7-0.6,1.3-1.2,1.8
		c-0.5,0.5-1.1,0.9-1.8,1.2c-0.6,0.2-1.4,0.4-2.4,0.5c-1.1,0-1.4,0.1-4.1,0.1s-3.1,0-4.1-0.1c-1.1,0-1.8-0.2-2.4-0.5
		c-0.7-0.3-1.3-0.6-1.8-1.2c-0.5-0.5-0.9-1.1-1.2-1.8c-0.2-0.6-0.4-1.4-0.5-2.4c0-1.1-0.1-1.4-0.1-4.1s0-3.1,0.1-4.1
		c0-1.1,0.2-1.8,0.5-2.4c0.3-0.7,0.6-1.3,1.2-1.8c0.5-0.5,1.1-0.9,1.8-1.2c0.6-0.2,1.4-0.4,2.4-0.5C-284.1,387-283.7,387-281,387z
		 M-281,392c-2.8,0-5,2.2-5,5s2.2,5,5,5s5-2.2,5-5S-278.2,392-281,392z M-274.5,391.8c0-0.7-0.6-1.3-1.3-1.3s-1.3,0.6-1.3,1.3
		s0.6,1.3,1.3,1.3S-274.5,392.4-274.5,391.8z M-281,394c1.7,0,3,1.3,3,3s-1.3,3-3,3s-3-1.3-3-3S-282.7,394-281,394z"/>
</g>
</svg>
