<?xml version="1.0" encoding="utf-8"?>
<!-- Generator: Adobe Illustrator 23.0.5, SVG Export Plug-In . SVG Version: 6.00 Build 0)  -->
<svg version="1.1" id="Layer_1" xmlns="http://www.w3.org/2000/svg" xmlns:xlink="http://www.w3.org/1999/xlink" x="0px" y="0px"
	 viewBox="0 0 131.6 50" style="enable-background:new 0 0 131.6 50;" xml:space="preserve">
<style type="text/css">
	.st0{fill:#2E2E2D;}
	.st1{fill:#B78723;}
	.st2{fill:#928C82;}
</style>
<g id="XMLID_122_">
	<path id="XMLID_123_" class="st0" d="M21.4,17.4c1.4,1.1,2.1,2.4,2.1,3.9c0,2-0.9,3.6-2.5,4.8c-1.6,1.1-4,1.7-6.9,1.7
		c-0.6,0-1.3,0-1.6,0c-1.5-0.1-3-0.1-4.4-0.1c-2.4,0-4.1,0-5.3,0.1V27c0.8-0.1,1.3-0.2,1.6-0.2c0.3-0.2,0.6-0.4,0.7-0.8
		c0.2-0.4,0.2-1,0.2-1.8V7.7c0-0.8-0.1-1.4-0.2-1.8C5,5.6,4.8,5.3,4.4,5.2C4.1,5.1,3.5,5,2.8,4.9V4.2c1.2,0.1,2.9,0.1,5.2,0.1h3.8
		c0.5,0,0.9,0,1.6,0c2.7,0,4.8,0.5,6.3,1.4c1.4,0.9,2.2,2.2,2.2,3.8c0,1.3-0.5,2.5-1.7,3.6c-1.2,1.1-2.8,1.8-5.1,2.3v0.1
		C17.9,15.6,20.1,16.2,21.4,17.4z M11.5,5.2c-0.3,0.2-0.5,0.5-0.6,0.8c-0.1,0.4-0.2,1-0.2,1.8v7.4h1.5c1.5,0,2.5-0.5,3.1-1.4
		c0.6-1,0.9-2.3,0.9-3.9S16,7,15.5,6.1c-0.5-0.8-1.4-1.2-2.5-1.2C12.2,4.9,11.8,5,11.5,5.2z M17.9,21.1c0-1.7-0.5-3-1.3-3.9
		c-0.9-0.9-2.4-1.4-4.3-1.4h-1.4v8.3c0,0.8,0.1,1.4,0.2,1.7s0.3,0.6,0.6,0.8c0.3,0.2,0.9,0.2,1.5,0.2C16.2,26.9,17.9,25,17.9,21.1z"
		/>
	<path id="XMLID_127_" class="st0" d="M27,26.8c-0.7-0.8-1.1-1.7-1.1-2.9c0-1,0.2-1.8,0.8-2.4c0.5-0.7,1.2-1.1,2-1.5
		c0.8-0.4,1.7-0.8,2.9-1.1c1.3-0.5,2.2-0.8,2.7-1.1c0.5-0.4,0.9-0.8,0.9-1.4v-2.6c0-0.9-0.2-1.7-0.6-2.2c-0.5-0.5-1.1-0.8-2-0.8
		c-1.1,0-2,0.2-2.5,0.8c0.6,0.2,1.1,0.5,1.5,1s0.5,1,0.5,1.5c0,0.8-0.2,1.4-0.8,1.8s-1.2,0.7-1.9,0.7c-0.8,0-1.4-0.2-1.9-0.8
		c-0.5-0.5-0.6-1.1-0.6-1.8c0-0.6,0.2-1.1,0.5-1.6c0.3-0.5,0.8-0.8,1.4-1.2c0.6-0.4,1.3-0.6,2.3-0.8c0.9-0.2,1.9-0.3,3-0.3
		c1.1,0,2.1,0.1,2.9,0.3c0.8,0.2,1.5,0.6,2,1.1c0.5,0.5,0.9,1.1,1,1.8c0.2,0.7,0.2,1.7,0.2,2.9v9c0,0.5,0.1,0.9,0.2,1.1
		c0.1,0.2,0.3,0.3,0.6,0.3s0.8-0.2,1.3-0.5l0.3,0.5c-1,0.8-2.3,1.2-3.8,1.2c-1.3,0-2.1-0.2-2.7-0.8c-0.5-0.5-0.8-1.1-0.8-2
		c-1.2,1.8-2.8,2.7-5,2.7C28.8,27.9,27.7,27.5,27,26.8z M35.1,24.4v-6.8c-0.2,0.5-0.9,0.9-1.7,1.4c-0.9,0.5-1.6,1.1-2,1.7
		s-0.7,1.4-0.7,2.4c0,0.9,0.2,1.6,0.5,2c0.4,0.5,0.9,0.6,1.6,0.6C33.7,25.8,34.5,25.3,35.1,24.4z"/>
	<path id="XMLID_130_" class="st1" d="M58.7,13.3c-0.3-0.3-0.5-0.8-0.5-1.3s0.2-1.1,0.4-1.6c-0.5,0.2-1,0.5-1.3,0.8
		c-0.4,0.3-0.6,0.6-0.9,1.1c0.7,0.8,1.1,1.9,1.1,3.2c0,1.7-0.6,3-1.9,3.9c-1.3,0.9-2.9,1.3-4.9,1.3H50c-0.9,0.5-1.4,1.1-1.4,1.7
		c0,0.7,0.5,1.1,1.3,1.1h3.7c2,0,3.6,0.4,4.8,1.1c1.2,0.7,1.8,1.8,1.8,3.3c0,1.1-0.4,2.1-1.1,3c-0.7,0.9-1.9,1.7-3.4,2.2
		c-1.5,0.5-3.4,0.8-5.6,0.8c-2.2,0-4-0.3-5.3-0.8c-1.3-0.5-2-1.3-2-2.4c0-0.7,0.3-1.3,0.9-1.8s1.6-1,2.8-1.3l0.3,0.5
		c-0.8,0.7-1.3,1.4-1.3,2.3c0,0.9,0.5,1.7,1.3,2.1c0.9,0.5,2,0.8,3.6,0.8s2.9-0.3,3.8-0.9c1-0.6,1.5-1.5,1.5-2.6
		c0-0.8-0.3-1.3-0.9-1.7c-0.5-0.5-1.6-0.6-2.9-0.6h-2.1c-1.5,0-2.6-0.2-3.4-0.7s-1.3-1.2-1.3-2.2c0-0.8,0.3-1.5,0.9-2.2
		c0.6-0.6,1.5-1.3,2.7-1.8c-1.6-0.2-2.9-0.8-3.9-1.6c-0.9-0.8-1.4-2-1.4-3.6c0-1.7,0.6-3,1.9-3.9c1.3-0.9,2.9-1.3,4.9-1.3
		c2.3,0,4,0.5,5.3,1.5c0.5-0.6,0.9-1.1,1.6-1.4c0.6-0.4,1.3-0.5,2-0.5c0.7,0,1.3,0.2,1.6,0.6c0.4,0.4,0.6,0.9,0.6,1.5
		c0,0.6-0.2,1.1-0.5,1.4c-0.4,0.4-0.8,0.5-1.3,0.5C59.4,13.7,59,13.6,58.7,13.3z M52.1,19c0.3-0.7,0.5-1.9,0.5-3.6s-0.2-2.9-0.5-3.6
		c-0.3-0.7-0.8-1.1-1.5-1.1c-0.7,0-1.1,0.4-1.5,1.1c-0.3,0.7-0.5,1.9-0.5,3.6s0.2,2.9,0.5,3.6s0.8,1.1,1.5,1.1
		C51.4,20,51.8,19.6,52.1,19z"/>
	<path id="XMLID_133_" class="st0" d="M69.9,10.5h4v0.7h-4v13.4c0,0.7,0.2,1.1,0.4,1.4c0.2,0.3,0.6,0.4,1.2,0.4c0.9,0,1.7-0.7,2.4-2
		l0.5,0.3c-0.9,2.3-2.4,3.4-4.7,3.4c-1.5,0-2.7-0.4-3.4-1.1c-0.5-0.5-0.8-1.1-0.9-1.7c-0.2-0.7-0.2-1.7-0.2-2.9V11.2h-2.9v-0.7H65
		V6.2c1.9,0,3.5-0.4,4.9-1.1L69.9,10.5L69.9,10.5z"/>
	<path id="XMLID_135_" class="st0" d="M89.7,22.8l0.6,0.2c-0.5,1.4-1.3,2.7-2.4,3.6c-1.2,1-2.7,1.5-4.4,1.5c-2.4,0-4.3-0.8-5.7-2.2
		c-1.4-1.5-2.1-3.7-2.1-6.6c0-3,0.8-5.2,2.3-6.8s3.5-2.4,6.1-2.4c4.3,0,6.4,2.4,6.4,7.4h-9.6c0,0.3,0,0.8,0,1.5
		c0,1.4,0.2,2.7,0.6,3.6c0.4,1,0.9,1.7,1.6,2.1c0.7,0.5,1.4,0.7,2.2,0.7C87.1,25.4,88.6,24.5,89.7,22.8z M81.8,12.3
		c-0.5,1-0.9,2.5-1,4.6h5.3c0.1-1.7-0.2-3.2-0.5-4.3c-0.4-1.1-1-1.7-1.8-1.7C83,10.8,82.3,11.3,81.8,12.3z"/>
	<path id="XMLID_138_" class="st0" d="M101.8,10.4c0.7,0.2,1.3,0.5,1.6,0.7c0.2,0.2,0.5,0.2,0.6,0.2c0.2,0,0.4-0.1,0.5-0.3
		c0.2-0.2,0.2-0.5,0.3-0.9h0.7c-0.1,1.1-0.2,3-0.2,5.8h-0.7c-0.2-1.4-0.6-2.7-1.3-3.6c-0.7-1-1.7-1.4-3.1-1.4
		c-0.7,0-1.3,0.2-1.7,0.5c-0.5,0.4-0.6,0.9-0.6,1.5c0,0.8,0.2,1.4,0.8,1.9c0.5,0.5,1.3,1.2,2.4,2l1,0.7c1.4,1,2.4,1.9,3.1,2.7
		c0.6,0.8,1,1.8,1,3c0,1-0.3,1.8-0.9,2.6c-0.5,0.8-1.3,1.3-2.4,1.7c-0.9,0.4-2,0.6-3.2,0.6c-1.3,0-2.4-0.2-3.2-0.7
		c-0.7-0.4-1.3-0.6-1.6-0.7c-0.2-0.1-0.4,0-0.6,0.2c-0.2,0.2-0.3,0.5-0.4,0.9h-0.7c0.1-1.3,0.2-3.5,0.2-6.6h0.7c0.5,4,2,6.1,4.6,6.1
		c0.6,0,1.3-0.2,1.7-0.6c0.5-0.4,0.7-1,0.7-1.7c0-0.6-0.2-1.1-0.4-1.7c-0.3-0.5-0.6-0.9-1.1-1.3c-0.5-0.4-1.1-0.9-2-1.5
		c-1-0.8-1.8-1.4-2.4-1.9s-1-1.1-1.3-1.7c-0.4-0.7-0.5-1.4-0.5-2.2c0-1.4,0.5-2.5,1.7-3.3s2.5-1.2,4.2-1.2
		C100.4,10.1,101.1,10.2,101.8,10.4z"/>
	<path id="XMLID_140_" class="st0" d="M115.8,13.2c1-2,2.9-3.1,5.6-3.1c1.8,0,3.1,0.5,3.8,1.3c0.4,0.5,0.6,1,0.9,1.7
		s0.2,1.6,0.2,2.7v8.9c0,0.9,0.2,1.5,0.5,1.9c0.3,0.4,0.9,0.5,1.7,0.5v0.7c-2.4-0.1-3.8-0.2-4.5-0.2c-0.8,0-2.3,0.1-4.5,0.2V27
		c0.7,0,1.2-0.2,1.4-0.5c0.2-0.3,0.4-1,0.4-1.9V14.3c0-0.9-0.2-1.6-0.5-2c-0.3-0.5-0.9-0.7-1.6-0.7c-0.9,0-1.7,0.4-2.4,1.1
		c-0.6,0.7-0.9,1.6-0.9,2.7v9.2c0,0.9,0.2,1.5,0.4,1.9s0.8,0.5,1.4,0.5v0.7c-2.2-0.1-3.6-0.2-4.2-0.2c-0.8,0-2.4,0.1-4.7,0.2V27
		c0.8,0,1.3-0.2,1.7-0.5c0.3-0.3,0.5-1,0.5-1.9V5.8c0-1-0.2-1.7-0.5-2.2c-0.3-0.5-0.9-0.7-1.7-0.7V2.2c0.7,0.1,1.4,0.1,2.1,0.1
		c2,0,3.6-0.2,5-0.5L115.8,13.2L115.8,13.2z"/>
</g>
<g id="XMLID_105_">
	<path id="XMLID_106_" class="st1" d="M61.6,39.8v-10h6.7v1.4h-4.9V34h4.6v1.4h-4.6v4.3L61.6,39.8L61.6,39.8z"/>
	<path id="XMLID_108_" class="st1" d="M77.5,39.8l-1-2.4h-5l-1,2.4h-1.9l4.7-10h1.5l4.7,10H77.5z M72.1,36h3.8L74,31.8L72.1,36z"/>
	<path id="XMLID_111_" class="st1" d="M82.2,39.6c-0.7-0.2-1.3-0.5-1.7-0.9l0.6-1.3c0.5,0.4,1,0.6,1.6,0.8c0.5,0.2,1.2,0.2,1.8,0.2
		c0.7,0,1.3-0.2,1.6-0.4c0.4-0.2,0.5-0.6,0.5-1.1c0-0.4-0.2-0.7-0.5-0.8c-0.4-0.2-0.9-0.4-1.8-0.5c-1.3-0.3-2.3-0.6-2.8-1.1
		c-0.6-0.5-0.9-1.1-0.9-1.9c0-0.6,0.2-1.1,0.5-1.6s0.8-0.8,1.4-1.1c0.6-0.2,1.3-0.4,2.1-0.4c0.7,0,1.4,0.1,2,0.3
		c0.6,0.2,1.2,0.5,1.6,0.9l-0.6,1.3c-0.9-0.7-2-1.1-3.1-1.1c-0.7,0-1.2,0.2-1.6,0.4c-0.4,0.3-0.5,0.6-0.5,1.1c0,0.4,0.2,0.7,0.5,0.9
		c0.3,0.2,0.9,0.4,1.7,0.6c0.9,0.2,1.6,0.4,2.1,0.6c0.5,0.2,0.9,0.5,1.3,0.9s0.5,0.8,0.5,1.4c0,0.6-0.2,1.1-0.5,1.6
		c-0.3,0.5-0.8,0.8-1.4,1.1c-0.6,0.2-1.3,0.4-2.2,0.4C83.7,39.9,83,39.8,82.2,39.6z"/>
	<path id="XMLID_113_" class="st1" d="M98.1,29.8h1.9v10h-1.9v-4.3h-5.3v4.3h-1.8v-10h1.8V34h5.3V29.8z"/>
	<path id="XMLID_115_" class="st1" d="M102.7,39.8v-10h1.9v10C104.6,39.8,102.7,39.8,102.7,39.8z"/>
	<path id="XMLID_117_" class="st1" d="M109.4,39.3c-0.7-0.4-1.3-1-1.7-1.7s-0.6-1.7-0.6-2.7c0-1.1,0.2-2,0.6-2.7s0.9-1.4,1.7-1.7
		c0.7-0.4,1.6-0.6,2.6-0.6c1,0,1.9,0.2,2.6,0.6c0.7,0.4,1.3,1,1.7,1.7s0.5,1.7,0.5,2.7s-0.2,2-0.6,2.7s-0.9,1.4-1.7,1.7
		c-0.8,0.4-1.6,0.6-2.6,0.6C111,39.9,110.2,39.7,109.4,39.3z M114.2,37.6c0.5-0.6,0.8-1.5,0.8-2.7s-0.2-2-0.8-2.7
		c-0.5-0.6-1.3-0.9-2.2-0.9s-1.7,0.3-2.2,0.9c-0.5,0.6-0.8,1.5-0.8,2.7s0.2,2.1,0.8,2.7s1.3,1,2.2,1S113.7,38.2,114.2,37.6z"/>
	<path id="XMLID_120_" class="st1" d="M126.3,29.8h1.7v10h-1.4l-5.6-7v7h-1.7v-10h1.4l5.6,7V29.8z"/>
</g>
<g id="XMLID_20_">
	<path id="XMLID_27_" class="st2" d="M5,46.1H4.2v2H3v-5.4h2c0.6,0,1.2,0.2,1.5,0.5c0.3,0.3,0.5,0.7,0.5,1.2c0,0.4-0.1,0.7-0.2,0.9
		c-0.2,0.2-0.4,0.5-0.8,0.6l1.3,2.2l0,0H6.1L5,46.1z M4.2,45.2h0.9c0.3,0,0.5-0.1,0.7-0.2C6,44.8,6,44.7,6,44.4
		c0-0.2-0.1-0.5-0.2-0.6c-0.2-0.2-0.4-0.2-0.7-0.2H4.2V45.2z"/>
	<path id="XMLID_30_" class="st2" d="M12.6,45.5c0,0.5-0.1,1-0.3,1.4s-0.5,0.7-0.9,0.9s-0.8,0.3-1.3,0.3c-0.4,0.1-0.8,0-1.2-0.2
		S8.4,47.3,8.2,47c-0.2-0.4-0.3-0.8-0.3-1.4v-0.3c0-0.5,0.1-1,0.3-1.4C8.4,43.6,8.6,43.3,9,43c0.4-0.2,0.8-0.3,1.3-0.3
		s0.9,0.1,1.3,0.3c0.4,0.2,0.6,0.5,0.9,0.9c0.2,0.4,0.3,0.8,0.3,1.4L12.6,45.5L12.6,45.5z M11.5,45.3c0-0.5-0.1-1-0.3-1.3
		s-0.5-0.5-0.9-0.5S9.6,43.7,9.4,44C9.3,44.3,9,44.8,9,45.3v0.2c0,0.5,0.1,1,0.3,1.3s0.5,0.5,0.9,0.5c0.4,0,0.7-0.2,0.9-0.5
		c0.2-0.3,0.3-0.7,0.3-1.3C11.5,45.5,11.5,45.3,11.5,45.3z"/>
	<path id="XMLID_33_" class="st2" d="M15.3,45.1l1.2-2.4h1.3l-1.8,3.4v2h-1.2v-2l-1.8-3.4h1.3L15.3,45.1z"/>
	<path id="XMLID_35_" class="st2" d="M20.9,47h-2l-0.3,1.1h-1.3l2-5.4h1.1l2.1,5.4h-1.3L20.9,47z M19.2,46.1h1.4l-0.7-2L19.2,46.1z"
		/>
	<path id="XMLID_56_" class="st2" d="M24.2,47.3h2.4v0.8h-3.6v-5.4h1.2V47.3z"/>
	<path id="XMLID_58_" class="st2" d="M30.7,48.1h-1.2v-5.4h1.2V48.1z"/>
	<path id="XMLID_60_" class="st2" d="M36.3,48.1h-1.2l-2.3-3.6v3.6h-1.2v-5.4h1.2l2.3,3.6v-3.6h1.2V48.1z"/>
	<path id="XMLID_62_" class="st2" d="M37.4,48.1v-5.4h1.7c0.5,0,0.9,0.1,1.3,0.3c0.4,0.2,0.7,0.5,0.9,0.9c0.2,0.4,0.3,0.8,0.3,1.4
		v0.2c0,0.5-0.1,0.9-0.3,1.4c-0.2,0.4-0.5,0.7-0.9,0.9c-0.4,0.2-0.9,0.3-1.3,0.3H37.4z M38.6,43.6v3.6h0.5c0.5,0,0.8-0.2,1-0.5
		c0.2-0.3,0.4-0.7,0.4-1.2v-0.3c0-0.5-0.1-1-0.3-1.2c-0.2-0.2-0.5-0.5-1-0.5L38.6,43.6L38.6,43.6z"/>
	<path id="XMLID_65_" class="st2" d="M43.8,48.1h-1.2v-5.4h1.2V48.1z"/>
	<path id="XMLID_67_" class="st2" d="M48.1,47h-2l-0.3,1.1h-1.3l2-5.4h1.1l2.1,5.4h-1.3L48.1,47z M46.5,46.1h1.4l-0.7-2L46.5,46.1z"
		/>
	<path id="XMLID_70_" class="st2" d="M54.9,48.1h-1.2l-2.3-3.6v3.6h-1.2v-5.4h1.2l2.3,3.6v-3.6h1.2V48.1z"/>
	<path id="XMLID_72_" class="st2" d="M58,48.1v-5.4h1.7c0.5,0,0.9,0.1,1.3,0.3c0.4,0.2,0.7,0.5,0.9,0.9c0.2,0.4,0.3,0.8,0.3,1.4v0.2
		c0,0.5-0.1,0.9-0.3,1.4c-0.2,0.4-0.5,0.7-0.9,0.9c-0.4,0.2-0.9,0.3-1.3,0.3H58z M59.2,43.6v3.6h0.5c0.5,0,0.8-0.2,1-0.5
		c0.2-0.3,0.4-0.7,0.4-1.2v-0.3c0-0.5-0.1-1-0.3-1.2c-0.2-0.2-0.5-0.5-1-0.5L59.2,43.6L59.2,43.6z"/>
	<path id="XMLID_75_" class="st2" d="M66.6,45.8h-2.2v1.4H67v0.8h-3.8v-5.4H67v0.9h-2.6v1.3h2.2V45.8z"/>
	<path id="XMLID_77_" class="st2" d="M70.6,46.7c0-0.2-0.1-0.4-0.2-0.5s-0.4-0.2-0.9-0.4c-0.5-0.2-0.7-0.2-0.9-0.4
		c-0.6-0.3-0.9-0.8-0.9-1.4c0-0.3,0.1-0.5,0.2-0.8c0.2-0.2,0.4-0.4,0.7-0.5c0.3-0.2,0.7-0.2,1.1-0.2c0.4,0,0.8,0.1,1.1,0.2
		c0.3,0.2,0.5,0.3,0.7,0.6c0.2,0.2,0.2,0.5,0.2,0.8h-1.2c0-0.2-0.1-0.5-0.2-0.6c-0.2-0.2-0.3-0.2-0.6-0.2c-0.3,0-0.5,0.1-0.6,0.2
		s-0.2,0.3-0.2,0.5c0,0.2,0.1,0.3,0.2,0.5c0.2,0.2,0.5,0.2,0.8,0.3c0.6,0.2,1.1,0.5,1.4,0.7c0.3,0.2,0.5,0.6,0.5,1.1
		s-0.2,0.8-0.5,1.1s-0.9,0.4-1.5,0.4c-0.4,0-0.8-0.1-1.2-0.2c-0.3-0.2-0.6-0.4-0.8-0.6s-0.3-0.6-0.3-0.9h1.3c0,0.6,0.4,0.9,1.1,0.9
		c0.2,0,0.5-0.1,0.6-0.2S70.6,46.9,70.6,46.7z"/>
	<path id="XMLID_79_" class="st2" d="M73.8,48.1h-1.2v-5.4h1.2V48.1z"/>
	<path id="XMLID_81_" class="st2" d="M79.3,47.4c-0.2,0.2-0.5,0.5-0.9,0.5c-0.4,0.2-0.8,0.2-1.3,0.2c-0.5,0-0.9-0.1-1.3-0.3
		c-0.4-0.2-0.6-0.5-0.9-0.9c-0.2-0.4-0.3-0.8-0.3-1.4v-0.4c0-0.5,0.1-1,0.3-1.4c0.2-0.4,0.5-0.7,0.8-0.9c0.4-0.2,0.8-0.3,1.3-0.3
		c0.6,0,1.2,0.2,1.6,0.5c0.4,0.3,0.6,0.8,0.6,1.4h-1.1c-0.1-0.3-0.2-0.5-0.3-0.7c-0.2-0.2-0.4-0.2-0.7-0.2c-0.4,0-0.7,0.2-0.9,0.5
		c-0.2,0.3-0.3,0.7-0.3,1.3v0.4c0,0.5,0.1,1,0.3,1.3c0.2,0.3,0.5,0.5,0.9,0.5s0.7-0.1,0.9-0.3v-0.9h-1v-0.8h2.2L79.3,47.4L79.3,47.4
		z"/>
	<path id="XMLID_83_" class="st2" d="M84.9,48.1h-1.2l-2.3-3.6v3.6h-1.1v-5.4h1.2l2.3,3.6v-3.6H85L84.9,48.1L84.9,48.1z"/>
	<path id="XMLID_85_" class="st2" d="M89.3,45.8h-2.2v1.4h2.6v0.8h-3.8v-5.4h3.8v0.9h-2.6v1.3h2.2V45.8z"/>
	<path id="XMLID_87_" class="st2" d="M92.5,46.1h-0.9v2h-1.2v-5.4h2c0.6,0,1.2,0.2,1.5,0.5c0.3,0.3,0.5,0.7,0.5,1.2
		c0,0.4-0.1,0.7-0.2,0.9c-0.2,0.2-0.4,0.5-0.8,0.6l1.2,2.2l0,0h-1.3L92.5,46.1z M91.7,45.2h0.9c0.3,0,0.5-0.1,0.7-0.2
		s0.2-0.3,0.2-0.6c0-0.2-0.1-0.5-0.2-0.6c-0.2-0.2-0.4-0.2-0.7-0.2h-0.9V45.2z"/>
	<path id="XMLID_90_" class="st2" d="M102.2,45.5c0,0.5-0.1,1-0.3,1.4c-0.2,0.4-0.5,0.7-0.9,0.9s-0.8,0.3-1.3,0.3
		c-0.5,0-0.9-0.1-1.3-0.3s-0.6-0.5-0.9-0.9s-0.3-0.8-0.3-1.4v-0.3c0-0.5,0.1-1,0.3-1.4c0.2-0.4,0.5-0.7,0.9-0.9s0.8-0.3,1.3-0.3
		c0.5,0,0.9,0.1,1.3,0.3c0.4,0.2,0.6,0.5,0.9,0.9c0.2,0.4,0.3,0.8,0.3,1.4V45.5z M101,45.3c0-0.5-0.1-1-0.3-1.3
		c-0.2-0.3-0.5-0.5-0.9-0.5s-0.7,0.2-0.9,0.5c-0.2,0.3-0.3,0.7-0.3,1.3v0.2c0,0.5,0.1,1,0.3,1.3c0.2,0.3,0.5,0.5,0.9,0.5
		s0.7-0.2,0.9-0.5c0.2-0.3,0.3-0.7,0.3-1.3L101,45.3L101,45.3z"/>
	<path id="XMLID_93_" class="st2" d="M107.3,42.7v3.6c0,0.6-0.2,1.1-0.5,1.4c-0.4,0.4-0.9,0.5-1.6,0.5c-0.6,0-1.2-0.2-1.6-0.5
		c-0.4-0.4-0.5-0.8-0.5-1.4v-3.6h1.2v3.6c0,0.4,0.1,0.6,0.2,0.8s0.4,0.2,0.7,0.2c0.6,0,0.9-0.3,1-1v-3.6H107.3z"/>
	<path id="XMLID_95_" class="st2" d="M112.5,43.6h-1.7v4.5h-1.2v-4.5H108v-0.9h4.5V43.6z"/>
	<path id="XMLID_97_" class="st2" d="M116.6,45.9h-2.2v2.2h-1.2v-5.4h3.6v0.9h-2.5V45h2.2L116.6,45.9L116.6,45.9z"/>
	<path id="XMLID_99_" class="st2" d="M118.9,48.1h-1.2v-5.4h1.2V48.1z"/>
	<path id="XMLID_101_" class="st2" d="M124,43.6h-1.7v4.5h-1.2v-4.5h-1.6v-0.9h4.5V43.6z"/>
	<path id="XMLID_103_" class="st2" d="M127.6,46.7c0-0.2-0.1-0.4-0.2-0.5c-0.2-0.1-0.4-0.2-0.9-0.4c-0.5-0.2-0.7-0.2-0.9-0.4
		c-0.6-0.3-0.9-0.8-0.9-1.4c0-0.3,0.1-0.5,0.2-0.8s0.4-0.4,0.7-0.5c0.3-0.2,0.7-0.2,1.1-0.2s0.8,0.1,1.1,0.2
		c0.3,0.2,0.5,0.3,0.7,0.6c0.2,0.2,0.2,0.5,0.2,0.8h-1.2c0-0.2-0.1-0.5-0.2-0.6c-0.2-0.2-0.4-0.2-0.7-0.2c-0.3,0-0.5,0.1-0.6,0.2
		c-0.2,0.1-0.2,0.3-0.2,0.5s0.1,0.3,0.2,0.5c0.2,0.2,0.5,0.2,0.8,0.3c0.6,0.2,1.1,0.5,1.4,0.7s0.5,0.6,0.5,1.1s-0.2,0.8-0.5,1.1
		s-0.9,0.4-1.5,0.4c-0.4,0-0.8-0.1-1.2-0.2c-0.3-0.2-0.6-0.4-0.8-0.6c-0.2-0.2-0.3-0.6-0.3-0.9h1.2c0,0.6,0.4,0.9,1.1,0.9
		c0.2,0,0.5-0.1,0.6-0.2C127.4,47,127.6,46.9,127.6,46.7z"/>
</g>
</svg>
