<?xml version="1.0" encoding="utf-8"?>
<!-- Generator: Adobe Illustrator 19.0.0, SVG Export Plug-In . SVG Version: 6.00 Build 0)  -->
<svg version="1.1" id="Layer_1" xmlns="http://www.w3.org/2000/svg" xmlns:xlink="http://www.w3.org/1999/xlink" x="0px" y="0px"
	 viewBox="-293 385 24 24" style="enable-background:new -293 385 24 24;" xml:space="preserve">
<style type="text/css">
	.st0{fill:none;}
	.st1{fill:#CCCCCC;}
</style>
<g>
	<path class="st0" d="M-293,385h24v24h-24V385z"/>
	<path class="st1" d="M-279.6,387.1c-5.5-0.8-10.5,3.1-11.3,8.5c-0.6,4.4,1.8,8.7,5.9,10.5c-0.1-0.8,0-1.5,0.2-2.3
		c0.2-0.8,1.3-5.5,1.3-5.5c-0.2-0.5-0.3-1-0.3-1.6c0-1.5,0.9-2.6,1.9-2.6c0.7,0,1.3,0.6,1.4,1.3c0,0.1,0,0.1,0,0.2
		c0,0.9-0.6,2.3-0.9,3.5c-0.2,0.8,0.3,1.7,1.1,1.9c0.2,0,0.3,0.1,0.5,0c1.9,0,3.2-2.4,3.2-5.3c0-2.2-1.5-3.8-4.1-3.8
		c-2.6-0.1-4.8,1.9-4.9,4.6c0,0.1,0,0.2,0,0.2c0,0.7,0.2,1.4,0.6,2c0.2,0.1,0.2,0.4,0.2,0.6c0,0.2-0.2,0.6-0.2,0.8
		c0,0.2-0.2,0.3-0.4,0.3c0,0-0.1,0-0.1,0c-1.4-0.6-2-2.1-2-3.8c0-2.8,2.4-6.3,7.2-6.3c3.8,0,6.3,2.8,6.3,5.7c0,3.9-2.2,6.8-5.4,6.8
		c-1,0-1.9-0.4-2.5-1.2c0,0-0.6,2.3-0.7,2.8c-0.2,0.8-0.6,1.5-1,2.1c0.9,0.3,1.9,0.4,2.8,0.4c5.5,0,10-4.5,10-10c0,0,0,0,0,0
		C-271,392-274.7,387.8-279.6,387.1L-279.6,387.1z"/>
</g>
</svg>
