<?xml version="1.0" encoding="utf-8"?>
<!-- Generator: Adobe Illustrator 19.0.0, SVG Export Plug-In . SVG Version: 6.00 Build 0)  -->
<svg version="1.1" id="Layer_1" xmlns="http://www.w3.org/2000/svg" xmlns:xlink="http://www.w3.org/1999/xlink" x="0px" y="0px"
	 viewBox="0 0 20 20" style="enable-background:new 0 0 20 20;" xml:space="preserve">
<style type="text/css">
	.st0{fill-rule:evenodd;clip-rule:evenodd;fill:#FFFFFF;}
</style>
<path id="XMLID_62_" class="st0" d="M9,12.4c0,0,0,0.1,0,0.1c-0.6,2.2-0.6,2.7-1.2,3.8c-0.3,0.5-0.6,1-0.9,1.4
	c0,0.1-0.1,0.1-0.2,0.1c-0.1,0-0.1-0.1-0.1-0.2c-0.1-0.7-0.1-1.4-0.1-2.1c0-0.9,0.1-1.2,1.3-6.1c0-0.1,0-0.1,0-0.2
	C7.4,8.6,7.4,7.8,7.6,7c0.5-1.7,2.4-1.8,2.7-0.4c0.2,0.8-0.3,2-0.7,3.6c-0.3,1.4,1.3,2.3,2.6,1.3c1.3-0.9,1.7-3.1,1.7-4.6
	c-0.2-3.1-3.6-3.8-5.7-2.8c-2.5,1.1-3,4.2-1.9,5.6c0.1,0.2,0.2,0.3,0.2,0.5c-0.1,0.3-0.1,0.6-0.2,0.8c-0.1,0.2-0.2,0.3-0.4,0.2
	c-0.4-0.2-0.8-0.4-1-0.8C3.8,9.3,3.5,7,4.8,5c1.4-2.2,4-3,6.3-2.8c2.8,0.3,4.6,2.2,4.9,4.4c0.2,1,0,3.4-1.3,5.2
	c-1.6,2-4.2,2.1-5.4,0.9C9.2,12.6,9.1,12.5,9,12.4z"/>
</svg>
