<?xml version="1.0" encoding="utf-8"?>
<!-- Generator: Adobe Illustrator 19.0.0, SVG Export Plug-In . SVG Version: 6.00 Build 0)  -->
<svg version="1.1" id="Layer_1" focusable="false" xmlns="http://www.w3.org/2000/svg" xmlns:xlink="http://www.w3.org/1999/xlink"
	 x="0px" y="0px" viewBox="-49 141 512 512" style="enable-background:new -49 141 512 512;" xml:space="preserve">
<style type="text/css">
	.st0{fill:#FFFFFF;}
</style>
<path class="st0" d="M415,173H287c-26.5,0-48,21.5-48,48v128c0,26.5,21.5,48,48,48h80v64c0,35.3-28.7,64-64,64h-8
	c-13.3,0-24,10.7-24,24v48c0,13.3,10.7,24,24,24h8c88.4,0,160-71.6,160-160V221C463,194.5,441.5,173,415,173z M127,173H-1
	c-26.5,0-48,21.5-48,48v128c0,26.5,21.5,48,48,48h80v64c0,35.3-28.7,64-64,64H7c-13.3,0-24,10.7-24,24v48c0,13.3,10.7,24,24,24h8
	c88.4,0,160-71.6,160-160V221C175,194.5,153.5,173,127,173z"/>
</svg>
