<?xml version="1.0" encoding="utf-8"?>
<!-- Generator: Adobe Illustrator 23.0.5, SVG Export Plug-In . SVG Version: 6.00 Build 0)  -->
<svg version="1.1" id="Layer_1" xmlns="http://www.w3.org/2000/svg" xmlns:xlink="http://www.w3.org/1999/xlink" x="0px" y="0px"
	 viewBox="0 0 160.3 50.3" style="enable-background:new 0 0 160.3 50.3;" xml:space="preserve">
<style type="text/css">
	.st0{fill:#2E2E2D;}
	.st1{fill:#B78723;}
</style>
<g id="XMLID_122_">
	<path id="XMLID_123_" class="st0" d="M23.8,20.5c1.8,1.5,2.7,3.2,2.7,5.1c0,2.7-1.1,4.8-3.2,6.3s-5.1,2.2-8.8,2.2
		c-0.8,0-1.6,0-2.1,0C10.5,34,8.6,34,6.8,34c-3,0-5.2,0-6.7,0.1v-0.9c1-0.1,1.7-0.2,2.1-0.3c0.4-0.2,0.8-0.5,0.9-1
		c0.2-0.5,0.2-1.3,0.2-2.4V7.8c0-1.1-0.1-1.9-0.2-2.4c-0.2-0.4-0.5-0.8-1-1C1.7,4.3,1,4.2,0,4.1V3.2c1.5,0.1,3.7,0.1,6.6,0.1h4.8
		c0.6,0,1.2,0,2,0c3.5,0,6.1,0.6,8,1.9c1.8,1.2,2.8,2.9,2.8,5c0,1.7-0.7,3.3-2.2,4.7c-1.5,1.5-3.6,2.4-6.5,3V18
		C19.3,18.1,22.1,19,23.8,20.5z M11.2,4.4c-0.4,0.2-0.6,0.6-0.8,1.1c-0.1,0.5-0.2,1.3-0.2,2.4v9.8h1.9c1.9,0,3.2-0.6,4-1.9
		s1.1-3,1.1-5.2s-0.3-3.8-1-4.9c-0.7-1.1-1.8-1.6-3.2-1.6C12.1,4.1,11.5,4.2,11.2,4.4z M19.3,25.4c0-2.3-0.6-4-1.7-5.2
		c-1.2-1.2-3-1.8-5.5-1.8h-1.8v11c0,1,0.1,1.8,0.2,2.3c0.1,0.5,0.4,0.8,0.8,1c0.4,0.2,1.1,0.3,1.9,0.3
		C17.2,33.1,19.3,30.5,19.3,25.4z"/>
	<path id="XMLID_127_" class="st0" d="M30.9,32.9c-0.9-1-1.4-2.2-1.4-3.8c0-1.3,0.3-2.4,1-3.2c0.7-0.9,1.5-1.5,2.5-2s2.2-1,3.7-1.5
		c1.6-0.6,2.8-1.1,3.5-1.5c0.7-0.5,1.1-1.1,1.1-1.9v-3.4c0-1.2-0.3-2.2-0.8-2.9c-0.6-0.7-1.4-1-2.6-1c-1.4,0-2.5,0.3-3.2,1
		c0.8,0.3,1.4,0.7,1.9,1.3s0.7,1.3,0.7,2c0,1-0.3,1.8-1,2.4s-1.5,0.9-2.4,0.9c-1,0-1.8-0.3-2.4-1c-0.6-0.6-0.8-1.4-0.8-2.4
		c0-0.8,0.2-1.5,0.6-2.1s1-1.1,1.8-1.6s1.7-0.8,2.9-1.1c1.1-0.3,2.4-0.4,3.8-0.4c1.4,0,2.7,0.1,3.7,0.4c1,0.3,1.9,0.8,2.6,1.5
		c0.6,0.6,1.1,1.4,1.3,2.4c0.2,0.9,0.3,2.2,0.3,3.8v11.8c0,0.7,0.1,1.2,0.2,1.5c0.1,0.3,0.4,0.4,0.8,0.4c0.4,0,1-0.2,1.6-0.7
		l0.4,0.7c-1.3,1.1-2.9,1.6-4.8,1.6c-1.6,0-2.7-0.3-3.4-1c-0.6-0.6-1-1.5-1-2.6C40,32.9,37.9,34,35.1,34
		C33.2,34.4,31.8,33.9,30.9,32.9z M41.3,29.8v-8.9c-0.3,0.6-1.1,1.2-2.2,1.9c-1.1,0.7-2,1.5-2.6,2.2s-0.9,1.8-0.9,3.1
		c0,1.2,0.2,2.1,0.7,2.6c0.5,0.6,1.1,0.8,2,0.8C39.5,31.6,40.5,31,41.3,29.8z"/>
	<path id="XMLID_130_" class="st1" d="M71.4,15.1c-0.4-0.4-0.6-1-0.6-1.7s0.2-1.4,0.5-2.1c-0.7,0.3-1.3,0.6-1.7,1
		c-0.5,0.4-0.8,0.8-1.2,1.4c0.9,1.1,1.4,2.5,1.4,4.2c0,2.3-0.8,4-2.4,5.2s-3.7,1.7-6.3,1.7h-0.8c-1.2,0.7-1.8,1.5-1.8,2.3
		c0,0.9,0.6,1.4,1.7,1.4h4.7c2.6,0,4.6,0.5,6.1,1.4s2.3,2.4,2.3,4.3c0,1.5-0.5,2.8-1.4,4s-2.4,2.2-4.3,2.9s-4.3,1.1-7.1,1.1
		s-5.1-0.4-6.8-1.1c-1.7-0.7-2.5-1.7-2.5-3.1c0-0.9,0.4-1.7,1.2-2.4s2-1.3,3.6-1.7l0.4,0.7c-1,0.9-1.6,1.9-1.6,3
		c0,1.2,0.6,2.2,1.7,2.8c1.1,0.7,2.6,1,4.6,1s3.7-0.4,4.9-1.2c1.3-0.8,1.9-2,1.9-3.4c0-1-0.4-1.7-1.1-2.3s-2-0.8-3.7-0.8h-2.7
		c-1.9,0-3.3-0.3-4.4-0.9s-1.6-1.6-1.6-2.9c0-1.1,0.4-2,1.1-2.9c0.8-0.8,1.9-1.7,3.4-2.4c-2.1-0.3-3.7-1-5-2.1
		c-1.2-1.1-1.8-2.7-1.8-4.7c0-2.3,0.8-4,2.4-5.2c1.6-1.2,3.7-1.7,6.3-1.7c2.9,0,5.1,0.7,6.7,2c0.6-0.8,1.2-1.4,2-1.9
		s1.6-0.7,2.5-0.7s1.6,0.3,2.1,0.8s0.8,1.2,0.8,2s-0.2,1.4-0.7,1.9s-1,0.7-1.6,0.7C72.3,15.7,71.8,15.5,71.4,15.1z M63,22.6
		c0.4-0.9,0.6-2.5,0.6-4.7s-0.2-3.8-0.6-4.7c-0.4-0.9-1-1.4-1.9-1.4s-1.4,0.5-1.9,1.4c-0.4,0.9-0.6,2.5-0.6,4.7s0.2,3.8,0.6,4.7
		c0.4,0.9,1,1.4,1.9,1.4S62.6,23.5,63,22.6z"/>
	<path id="XMLID_133_" class="st0" d="M85.6,11.5h5.1v0.9h-5.1V30c0,0.9,0.2,1.5,0.5,1.9s0.8,0.5,1.5,0.5c1.2,0,2.2-0.9,3-2.6
		l0.7,0.4c-1.1,3-3.1,4.5-6,4.5c-1.9,0-3.4-0.5-4.4-1.5c-0.6-0.6-1-1.4-1.2-2.3s-0.3-2.2-0.3-3.8V12.4h-3.7v-0.9h3.7V5.8
		c2.4,0,4.5-0.5,6.3-1.4L85.6,11.5L85.6,11.5z"/>
	<path id="XMLID_135_" class="st0" d="M110.9,27.6l0.8,0.3c-0.6,1.9-1.6,3.5-3.1,4.8c-1.5,1.3-3.4,2-5.6,2c-3.1,0-5.5-1-7.3-2.9
		c-1.8-2-2.7-4.9-2.7-8.7c0-3.9,1-6.9,2.9-9s4.5-3.1,7.8-3.1c5.5,0,8.2,3.2,8.2,9.7H99.6c0,0.4,0,1.1,0,2c0,1.9,0.3,3.5,0.8,4.8
		s1.2,2.2,2.1,2.8c0.9,0.6,1.8,0.9,2.8,0.9C107.6,31.1,109.5,29.9,110.9,27.6z M100.8,13.8c-0.7,1.3-1.1,3.3-1.3,6h6.8
		c0.1-2.3-0.2-4.2-0.7-5.7s-1.3-2.2-2.3-2.2C102.3,11.8,101.5,12.5,100.8,13.8z"/>
	<path id="XMLID_138_" class="st0" d="M126.4,11.3c0.9,0.3,1.6,0.6,2.1,0.9c0.3,0.2,0.6,0.3,0.8,0.3c0.3,0,0.5-0.1,0.7-0.4
		c0.2-0.3,0.3-0.7,0.4-1.2h0.9c-0.1,1.5-0.2,4-0.2,7.7h-0.9c-0.3-1.9-0.8-3.5-1.7-4.8c-0.9-1.3-2.2-1.9-3.9-1.9
		c-0.9,0-1.6,0.2-2.2,0.7s-0.8,1.2-0.8,2c0,1,0.3,1.8,1,2.5s1.7,1.6,3.1,2.6l1.3,0.9c1.8,1.3,3.1,2.5,3.9,3.6c0.8,1,1.3,2.4,1.3,3.9
		c0,1.3-0.4,2.4-1.1,3.4c-0.7,1-1.7,1.7-3,2.3c-1.2,0.5-2.6,0.8-4.1,0.8c-1.6,0-3-0.3-4.1-0.9c-0.9-0.5-1.6-0.8-2-0.9
		c-0.3-0.1-0.5,0-0.8,0.3c-0.2,0.3-0.4,0.7-0.5,1.2h-0.9c0.1-1.7,0.2-4.6,0.2-8.7h0.9c0.6,5.3,2.5,8,5.9,8c0.8,0,1.6-0.3,2.2-0.8
		s0.9-1.3,0.9-2.3c0-0.8-0.2-1.5-0.5-2.2c-0.4-0.6-0.8-1.2-1.4-1.7s-1.4-1.2-2.5-2c-1.3-1-2.3-1.9-3-2.5s-1.3-1.4-1.7-2.3
		c-0.5-0.9-0.7-1.8-0.7-2.9c0-1.9,0.7-3.3,2.2-4.4s3.2-1.6,5.3-1.6C124.5,10.9,125.5,11.1,126.4,11.3z"/>
	<path id="XMLID_140_" class="st0" d="M144.2,15c1.3-2.7,3.7-4.1,7.1-4.1c2.3,0,3.9,0.6,4.8,1.7c0.5,0.6,0.8,1.3,1.1,2.2
		s0.3,2.1,0.3,3.5V30c0,1.2,0.2,2,0.6,2.5c0.4,0.5,1.1,0.7,2.2,0.7v0.9c-3-0.1-4.9-0.2-5.8-0.2c-1,0-2.9,0.1-5.7,0.2v-0.9
		c0.9,0,1.5-0.2,1.8-0.7c0.3-0.4,0.5-1.3,0.5-2.5V16.5c0-1.2-0.2-2.1-0.6-2.7c-0.4-0.6-1.1-0.9-2.1-0.9c-1.2,0-2.2,0.5-3.1,1.4
		c-0.8,0.9-1.2,2.1-1.2,3.6V30c0,1.2,0.2,2,0.5,2.5s1,0.7,1.8,0.7v0.9c-2.8-0.1-4.6-0.2-5.4-0.2c-1,0-3,0.1-6,0.2v-0.9
		c1,0,1.7-0.2,2.2-0.7c0.4-0.4,0.6-1.3,0.6-2.5V5.2c0-1.3-0.2-2.3-0.6-2.9c-0.4-0.6-1.1-0.9-2.2-0.9V0.5c0.9,0.1,1.8,0.1,2.7,0.1
		c2.5,0,4.6-0.2,6.4-0.6L144.2,15L144.2,15z"/>
</g>
<g id="XMLID_105_">
	<path id="XMLID_106_" class="st1" d="M75.1,50.1V36.9h8.6v1.9h-6.2v3.6h5.9v1.9h-5.9V50L75.1,50.1L75.1,50.1z"/>
	<path id="XMLID_108_" class="st1" d="M95.4,50.1L94.1,47h-6.4l-1.3,3.1H84l6-13.2h1.9l6,13.2H95.4z M88.5,45.1h4.8l-2.4-5.6
		L88.5,45.1z"/>
	<path id="XMLID_111_" class="st1" d="M101.4,49.8c-0.9-0.3-1.6-0.7-2.2-1.2l0.8-1.7c0.6,0.5,1.3,0.8,2,1.1c0.7,0.2,1.5,0.3,2.3,0.3
		c0.9,0,1.6-0.2,2.1-0.5s0.7-0.8,0.7-1.4c0-0.5-0.2-0.9-0.7-1.1s-1.2-0.5-2.3-0.7c-1.7-0.4-2.9-0.8-3.6-1.4
		c-0.8-0.6-1.1-1.4-1.1-2.5c0-0.8,0.2-1.5,0.6-2.1s1-1.1,1.8-1.4s1.7-0.5,2.7-0.5c0.9,0,1.8,0.1,2.6,0.4c0.8,0.3,1.5,0.7,2,1.2
		l-0.8,1.7c-1.2-0.9-2.5-1.4-3.9-1.4c-0.9,0-1.5,0.2-2,0.5c-0.5,0.4-0.7,0.8-0.7,1.4c0,0.5,0.2,0.9,0.7,1.2c0.4,0.3,1.2,0.5,2.2,0.8
		c1.1,0.3,2,0.5,2.7,0.8s1.2,0.7,1.6,1.2s0.6,1.1,0.6,1.8c0,0.8-0.2,1.5-0.6,2.1s-1,1-1.8,1.4c-0.8,0.3-1.7,0.5-2.8,0.5
		C103.2,50.2,102.3,50.1,101.4,49.8z"/>
	<path id="XMLID_113_" class="st1" d="M121.6,36.9h2.4v13.2h-2.4v-5.7h-6.8v5.7h-2.3V36.9h2.3v5.5h6.8V36.9z"/>
	<path id="XMLID_115_" class="st1" d="M127.5,50.1V36.9h2.4v13.2C129.9,50.1,127.5,50.1,127.5,50.1z"/>
	<path id="XMLID_117_" class="st1" d="M136,49.4c-0.9-0.5-1.7-1.3-2.2-2.3s-0.8-2.2-0.8-3.6c0-1.4,0.3-2.6,0.8-3.6s1.2-1.8,2.2-2.3
		c0.9-0.5,2.1-0.8,3.3-0.8c1.3,0,2.4,0.3,3.3,0.8c0.9,0.5,1.7,1.3,2.2,2.3s0.7,2.2,0.7,3.6c0,1.4-0.3,2.6-0.8,3.6s-1.2,1.8-2.2,2.3
		s-2,0.8-3.3,0.8C138.1,50.2,137,49.9,136,49.4z M142.2,47.1c0.7-0.8,1-2,1-3.6s-0.3-2.7-1-3.6c-0.7-0.8-1.6-1.2-2.8-1.2
		s-2.2,0.4-2.8,1.2c-0.7,0.8-1,2-1,3.6s0.3,2.8,1,3.6s1.6,1.3,2.8,1.3S141.5,47.9,142.2,47.1z"/>
	<path id="XMLID_120_" class="st1" d="M157.6,36.9h2.2v13.2H158l-7.1-9.2v9.2h-2.2V36.9h1.8l7.1,9.2V36.9z"/>
</g>
</svg>
