<?xml version="1.0" encoding="utf-8"?>
<!-- Generator: Adobe Illustrator 19.0.0, SVG Export Plug-In . SVG Version: 6.00 Build 0)  -->
<svg version="1.1" id="Layer_1" xmlns="http://www.w3.org/2000/svg" xmlns:xlink="http://www.w3.org/1999/xlink" x="0px" y="0px"
	 viewBox="-293 385 24 24" style="enable-background:new -293 385 24 24;" xml:space="preserve">
<style type="text/css">
	.st0{fill:none;}
	.st1{fill:#CCCCCC;}
</style>
<g>
	<path class="st0" d="M-293,385h24v24h-24V385z"/>
	<path class="st1" d="M-270.8,390.7c-0.8,0.3-1.6,0.6-2.4,0.7c0.9-0.5,1.5-1.3,1.8-2.3c-0.8,0.5-1.7,0.8-2.7,1
		c-1.6-1.7-4.2-1.8-5.9-0.2c-1.1,1-1.6,2.6-1.2,4c-3.4-0.2-6.5-1.8-8.6-4.4c-0.4,0.6-0.6,1.4-0.6,2.1c0,1.4,0.7,2.7,1.9,3.5
		c-0.7,0-1.3-0.2-1.9-0.5v0.1c0,2,1.4,3.7,3.4,4.1c-0.6,0.2-1.3,0.2-1.9,0.1c0.5,1.7,2.1,2.9,3.9,2.9c-1.8,1.4-4,2-6.2,1.7
		c1.9,1.2,4.1,1.9,6.4,1.9c7.7,0,11.9-6.4,11.9-11.9c0-0.2,0-0.4,0-0.5C-272.1,392.2-271.4,391.5-270.8,390.7L-270.8,390.7z"/>
</g>
</svg>
