<?xml version="1.0" encoding="utf-8"?>
<!-- Generator: Adobe Illustrator 19.0.0, SVG Export Plug-In . SVG Version: 6.00 Build 0)  -->
<svg version="1.1" id="Layer_1" xmlns="http://www.w3.org/2000/svg" xmlns:xlink="http://www.w3.org/1999/xlink" x="0px" y="0px"
	 viewBox="0 0 20 20" style="enable-background:new 0 0 20 20;" xml:space="preserve">
<style type="text/css">
	.st0{fill-rule:evenodd;clip-rule:evenodd;fill:#FFFFFF;}
</style>
<path id="XMLID_4_" class="st0" d="M6.9,13.7c-1.7-0.1-2.8-1.3-3.1-2.3c0.5,0.1,0.9,0.1,1.4,0c0,0,0,0,0,0c-0.9-0.2-1.6-0.7-2.1-1.5
	C2.8,9.3,2.6,8.7,2.6,8.1c0.5,0.2,0.9,0.4,1.5,0.4C3.4,8,2.9,7.3,2.8,6.5C2.6,5.7,2.7,4.9,3.1,4.1c1.8,2.1,4,3.2,6.8,3.4
	c0-0.1,0-0.2-0.1-0.4C9.7,6.4,9.9,5.7,10.3,5c0.5-0.8,1.3-1.3,2.2-1.5c1.1-0.2,2.1,0.1,2.9,0.9c0.1,0.1,0.1,0.1,0.2,0.1
	c0.7-0.1,1.3-0.4,1.9-0.7c0,0,0,0,0,0c0,0,0,0,0,0c-0.3,0.8-0.7,1.4-1.4,1.8c0.6-0.1,1.2-0.2,1.8-0.5c0,0,0,0,0,0
	c-0.1,0.2-0.2,0.3-0.4,0.5c-0.3,0.4-0.7,0.8-1.2,1.1c0,0-0.1,0.1-0.1,0.1c0,0.5,0,1-0.1,1.5c-0.1,1-0.4,2-0.8,2.9
	c-0.4,1-1,1.8-1.8,2.6c-1.3,1.3-2.8,2.1-4.5,2.5c-0.6,0.1-1.2,0.2-1.8,0.2c-1.9,0.1-3.6-0.4-5.3-1.4c0,0,0,0-0.1-0.1
	c1.1,0.1,2.2,0,3.3-0.5C5.9,14.4,6.4,14.1,6.9,13.7z"/>
</svg>
