<?xml version="1.0" encoding="utf-8"?>
<!-- Generator: Adobe Illustrator 19.0.0, SVG Export Plug-In . SVG Version: 6.00 Build 0)  -->
<svg version="1.1" id="Layer_1" xmlns="http://www.w3.org/2000/svg" xmlns:xlink="http://www.w3.org/1999/xlink" x="0px" y="0px"
	 viewBox="-1715 1285 24 24" style="enable-background:new -1715 1285 24 24;" xml:space="preserve">
<style type="text/css">
	.st0{fill-opacity:0;}
	.st1{fill:#2E2E2D;}
</style>
<g>
	<g>
		<rect x="-1715" y="1285" class="st0" width="24" height="24"/>
		<path class="st1" d="M-1703,1306c-0.3,0-0.5-0.1-0.7-0.3l-7.8-7.8c-2-2-2-5.4,0-7.4c2-2,5.4-2,7.4,0l1.1,1.1l1.1-1.1
			c2-2,5.4-2,7.4,0c2,2,2,5.4,0,7.4l-7.8,7.8C-1702.5,1305.9-1702.7,1306-1703,1306z M-1707.8,1291c-0.9,0-1.7,0.3-2.3,0.9
			c-1.3,1.3-1.3,3.3,0,4.6l7.1,7.1l7.1-7.1c1.3-1.3,1.3-3.3,0-4.6c-1.3-1.2-3.3-1.2-4.6,0l-1.8,1.8c-0.4,0.4-1,0.4-1.4,0
			c0,0,0,0,0,0l-1.8-1.8C-1706.1,1291.3-1706.9,1291-1707.8,1291z"/>
	</g>
</g>
</svg>
