<svg width="175" height="175" viewBox="0 0 175 175" fill="none" xmlns="http://www.w3.org/2000/svg">
<path d="M145.703 148.81C143.939 148.81 142.445 148.18 141.221 146.92C139.997 145.624 139.385 144.058 139.385 142.222C139.385 140.998 139.655 139.9 140.195 138.928C140.771 137.956 141.527 137.182 142.463 136.606C143.435 135.994 144.515 135.688 145.703 135.688C146.855 135.688 147.899 135.994 148.835 136.606C149.807 137.182 150.581 137.956 151.157 138.928C151.733 139.9 152.021 140.998 152.021 142.222C152.021 143.446 151.733 144.562 151.157 145.57C150.581 146.542 149.807 147.334 148.835 147.946C147.899 148.522 146.855 148.81 145.703 148.81ZM145.703 175C144.263 175 143.183 174.586 142.463 173.758C141.779 172.93 141.311 171.67 141.059 169.978C140.843 168.25 140.717 166.036 140.681 163.336C140.681 160.636 140.789 158.422 141.005 156.694C141.257 154.966 141.743 153.706 142.463 152.914C143.183 152.086 144.263 151.672 145.703 151.672C147.143 151.672 148.205 152.086 148.889 152.914C149.609 153.706 150.095 154.966 150.347 156.694C150.599 158.422 150.725 160.636 150.725 163.336C150.761 166.036 150.653 168.25 150.401 169.978C150.149 171.67 149.663 172.93 148.943 173.758C148.223 174.586 147.143 175 145.703 175Z" fill="#FFAF17"/>
<path d="M119.692 175C118.468 175 117.46 174.604 116.668 173.812C115.912 172.984 115.336 171.886 114.94 170.518C114.544 169.15 114.274 167.584 114.13 165.82C113.986 164.056 113.914 162.238 113.914 160.366C113.914 159.106 113.932 157.828 113.968 156.532C114.04 155.2 114.22 153.976 114.508 152.86C114.832 151.744 115.354 150.844 116.074 150.16C116.83 149.44 117.892 149.08 119.26 149.08C120.232 149.08 121.114 149.314 121.906 149.782C122.698 150.214 123.202 150.88 123.418 151.78C124.246 151.024 125.29 150.484 126.55 150.16C127.846 149.8 129.178 149.62 130.546 149.62C131.698 149.62 132.868 149.908 134.056 150.484C135.244 151.024 136.252 151.78 137.08 152.752C137.908 153.724 138.322 154.822 138.322 156.046C138.322 157.09 137.926 158.08 137.134 159.016C136.378 159.952 135.298 160.42 133.894 160.42C133.282 160.42 132.778 160.348 132.382 160.204C131.986 160.024 131.608 159.862 131.248 159.718C130.888 159.574 130.456 159.502 129.952 159.502C128.62 159.502 127.396 160.042 126.28 161.122C125.2 162.166 124.66 163.588 124.66 165.388C124.66 166.324 124.624 167.35 124.552 168.466C124.516 169.546 124.354 170.59 124.066 171.598C123.814 172.606 123.346 173.434 122.662 174.082C121.978 174.694 120.988 175 119.692 175Z" fill="#FFAF17"/>
<path d="M90.1245 175C88.3245 175 86.9565 174.298 86.0205 172.894C85.0845 171.49 84.4545 169.312 84.1305 166.36C83.8065 163.372 83.6445 159.52 83.6445 154.804C83.6445 151.276 83.7345 148.198 83.9145 145.57C84.1305 142.942 84.6705 140.89 85.5345 139.414C86.3985 137.938 87.7845 137.2 89.6925 137.2C91.1685 137.2 92.2845 137.614 93.0405 138.442C93.7965 139.234 94.3005 140.296 94.5525 141.628C94.8405 142.924 95.0025 144.364 95.0385 145.948C95.0745 147.496 95.0925 149.044 95.0925 150.592C95.7045 150.304 96.2805 150.07 96.8205 149.89C97.3965 149.71 98.2965 149.62 99.5205 149.62C102.077 149.62 104.219 150.25 105.947 151.51C107.675 152.77 108.989 154.444 109.889 156.532C110.789 158.62 111.239 160.924 111.239 163.444C111.239 164.74 111.185 166.054 111.077 167.386C110.969 168.718 110.735 169.942 110.375 171.058C110.015 172.174 109.493 173.092 108.809 173.812C108.125 174.496 107.207 174.838 106.055 174.838C104.579 174.838 103.481 174.514 102.761 173.866C102.077 173.182 101.645 172.228 101.465 171.004C101.285 169.744 101.195 168.286 101.195 166.63C101.195 164.722 100.979 163.138 100.547 161.878C100.151 160.618 99.3585 159.988 98.1705 159.988C96.9825 159.988 96.1545 160.618 95.6865 161.878C95.2545 163.138 95.0205 164.722 94.9845 166.63C94.9845 168.286 94.8765 169.744 94.6605 171.004C94.4805 172.264 94.0485 173.254 93.3645 173.974C92.6805 174.658 91.6005 175 90.1245 175Z" fill="#FFAF17"/>
<path d="M66.8919 175C65.1279 175 63.5079 174.73 62.0319 174.19C60.5919 173.65 59.4399 172.84 58.5759 171.76C57.7119 170.644 57.2799 169.24 57.2799 167.548C57.2799 166.108 57.7119 164.884 58.5759 163.876C59.4399 162.868 60.5919 162.094 62.0319 161.554C63.5079 161.014 65.1279 160.744 66.8919 160.744C67.9359 160.744 68.8899 160.834 69.7539 161.014C70.6179 161.158 71.2119 161.338 71.5359 161.554C71.5359 160.726 71.1939 160.006 70.5099 159.394C69.8259 158.746 68.6379 158.422 66.9459 158.422C66.1539 158.422 65.5239 158.494 65.0559 158.638C64.6239 158.746 64.2279 158.89 63.8679 159.07C63.5079 159.25 63.0939 159.412 62.6259 159.556C62.1939 159.664 61.5999 159.718 60.8439 159.718C59.7279 159.718 58.8279 159.43 58.1439 158.854C57.4959 158.242 57.1719 157.324 57.1719 156.1C57.1719 154.984 57.4779 154.03 58.0899 153.238C58.7379 152.41 59.5659 151.726 60.5739 151.186C61.5819 150.646 62.6619 150.25 63.8139 149.998C65.0019 149.746 66.1359 149.62 67.2159 149.62C70.4199 149.62 73.0299 150.214 75.0459 151.402C77.0619 152.554 78.5559 154.066 79.5279 155.938C80.4999 157.81 80.9859 159.844 80.9859 162.04C80.9859 163.264 80.8779 164.398 80.6619 165.442C80.4819 166.486 80.2299 167.296 79.9059 167.872C80.4099 168.304 80.7879 168.808 81.0399 169.384C81.3279 169.96 81.4719 170.554 81.4719 171.166C81.4719 172.174 81.1299 173.074 80.4459 173.866C79.7979 174.622 78.8619 175 77.6379 175C76.7019 175 75.9639 174.856 75.4239 174.568C74.8839 174.28 74.3439 173.902 73.8039 173.434C72.9399 173.938 71.9859 174.334 70.9419 174.622C69.8979 174.874 68.5479 175 66.8919 175ZM67.9719 169.546C68.7999 169.546 69.4119 169.384 69.8079 169.06C70.2399 168.7 70.4559 168.304 70.4559 167.872C70.4559 167.44 70.2399 167.062 69.8079 166.738C69.4119 166.378 68.7999 166.198 67.9719 166.198C67.1799 166.198 66.5679 166.378 66.1359 166.738C65.7039 167.062 65.4879 167.44 65.4879 167.872C65.4879 168.304 65.7039 168.7 66.1359 169.06C66.5679 169.384 67.1799 169.546 67.9719 169.546Z" fill="#FFAF17"/>
<path d="M40.874 174.946C37.022 174.91 33.764 174.28 31.1 173.056C28.436 171.832 26.42 169.87 25.052 167.17C23.684 164.434 23 160.816 23 156.316C23 152.392 23.63 149.008 24.89 146.164C26.186 143.32 28.058 141.124 30.506 139.576C32.954 137.992 35.96 137.2 39.524 137.2C42.656 137.2 45.392 137.65 47.732 138.55C50.072 139.45 51.908 140.746 53.24 142.438C54.608 144.094 55.364 146.074 55.508 148.378C55.652 150.574 55.274 152.482 54.374 154.102C53.51 155.722 52.214 157.162 50.486 158.422C51.746 158.638 52.88 159.34 53.888 160.528C54.932 161.716 55.454 163.156 55.454 164.848C55.454 166 55.22 167.17 54.752 168.358C54.284 169.546 53.492 170.644 52.376 171.652C51.296 172.66 49.802 173.47 47.894 174.082C46.022 174.658 43.682 174.946 40.874 174.946ZM37.148 154.804C37.904 155.128 38.804 155.29 39.848 155.29C40.892 155.254 41.81 154.966 42.602 154.426C43.43 153.886 43.844 153.058 43.844 151.942C43.844 151.114 43.592 150.448 43.088 149.944C42.62 149.44 42.026 149.098 41.306 148.918C40.586 148.702 39.848 148.612 39.092 148.648C38.336 148.684 37.688 148.846 37.148 149.134C36.464 149.458 35.996 150.016 35.744 150.808C35.528 151.6 35.528 152.392 35.744 153.184C35.996 153.94 36.464 154.48 37.148 154.804ZM37.148 167.44C37.904 167.728 38.804 167.872 39.848 167.872C40.892 167.836 41.81 167.584 42.602 167.116C43.43 166.648 43.844 165.928 43.844 164.956C43.844 164.236 43.592 163.66 43.088 163.228C42.62 162.76 42.026 162.436 41.306 162.256C40.586 162.076 39.848 162.022 39.092 162.094C38.336 162.13 37.688 162.256 37.148 162.472C36.464 162.76 35.996 163.246 35.744 163.93C35.528 164.614 35.528 165.298 35.744 165.982C35.996 166.666 36.464 167.152 37.148 167.44Z" fill="#FFAF17"/>
<path d="M146.967 58.4389C146.967 73.9568 140.806 88.8391 129.84 99.8119C118.874 110.785 104 116.949 88.4913 116.949C80.8116 116.95 73.2069 115.437 66.1115 112.497C59.0161 109.557 52.569 105.247 47.1384 99.8141C41.7077 94.3809 37.3998 87.9305 34.4607 80.8313C31.5216 73.7321 30.0089 66.1231 30.0089 58.4389C29.9982 51.8796 31.0938 45.3656 33.2496 39.1711L33.3663 39.2425H34.3515C34.4746 39.0414 34.507 38.7561 34.8311 38.7496C34.9672 38.4966 35.0903 38.2307 35.4792 38.2502C35.8422 38.1594 36.0626 37.7703 36.4709 37.7573C36.7885 37.5368 37.1191 37.6471 37.482 37.6341C38.2922 37.6341 39.1218 37.7444 39.8672 37.2904H39.9255C40.2626 37.0699 40.645 37.2255 41.0015 37.1542C40.9561 36.7391 40.632 36.8559 40.3922 36.8559C39.5755 36.8559 38.7589 36.8559 37.9422 36.8559H35.5246C35.5246 37.1282 35.4533 37.3293 35.1293 37.3228H33.3404C33.1524 37.3228 32.9515 37.3228 32.9191 37.0634C32.8672 36.7067 33.107 36.6808 33.3598 36.6743C33.3144 35.9544 33.5802 35.5718 34.358 35.7274H34.5978L37.9033 35.6885C37.9552 34.9103 38.5515 35.3124 38.9015 35.241H39.8218L40.47 35.1891C40.5348 34.4304 41.1181 34.8325 41.4617 34.7481H42.4144C42.9135 34.7481 43.4061 34.7481 43.9052 34.7481C44.2422 34.7481 44.3848 34.8779 44.3848 35.2021H47.4181C47.4181 34.8325 47.5931 34.6898 47.9496 34.7611C47.9172 34.3655 48.1052 34.2293 48.4746 34.2942H52.4867C52.4867 33.918 52.6422 33.7818 52.9922 33.8337H53.4783V33.7948C53.4783 33.6457 53.4783 33.4965 53.4783 33.3473H47.9755C47.9755 33.6911 47.8394 33.8337 47.4959 33.8208C47.1524 33.8078 46.7441 33.8208 46.3617 33.8208C45.9792 33.8208 45.8755 33.7429 45.8691 33.3862C45.8626 33.0296 45.9663 32.822 46.3552 32.8545H47.4959L48.2931 32.8091C48.4292 32.5432 48.5718 32.2902 48.9413 32.3162C49.9124 31.9561 50.947 31.7994 51.9811 31.8557C54.2691 31.9011 56.5505 31.5963 58.8385 31.713C58.8659 31.7005 58.8906 31.6826 58.9111 31.6604C58.9315 31.6382 58.9473 31.6122 58.9576 31.5838C58.9678 31.5554 58.9723 31.5253 58.9708 31.4951C58.9693 31.465 58.9618 31.4354 58.9487 31.4082L49.4792 31.3499C49.2654 31.3499 49.0126 31.4277 48.9802 31.1164C48.9478 30.8051 49.1876 30.7402 49.4533 30.7532C49.8487 30.7013 50.2765 30.8375 50.5876 30.39C50.7561 30.1501 51.1191 30.2409 51.4042 30.2733L52.3505 30.2344C52.3505 29.9426 52.3505 29.6507 52.3505 29.3654C52.3505 28.9244 52.5968 28.7558 52.9987 28.8076H54.4311H55.9153H56.4015C56.3626 28.2694 56.7061 28.2888 57.0496 28.3342H57.3478C57.3478 27.971 57.4839 27.8154 57.8468 27.8608C58.2098 27.9062 58.6246 27.8608 59.007 27.8608C59.3894 27.8608 59.4672 28.0294 59.4607 28.3342L59.7653 28.3796H63.9718C64.3413 28.4445 64.9246 28.0618 64.9635 28.8401H65.2617H65.9098C66.2792 28.7817 66.4478 28.9373 66.4154 29.3135H67.8672C68.2496 29.2486 68.4181 29.4108 68.3598 29.7934C68.7357 29.735 68.9302 29.8647 68.8459 30.2733C69.9672 31.5704 71.4709 31.2396 72.8968 31.2266C72.8968 30.9543 73.1042 30.8959 73.3441 30.9089C73.3441 30.7078 73.3894 30.5068 73.4153 30.3057C73.357 29.9685 73.4478 29.748 73.8431 29.7869L73.9015 29.3329C73.8431 28.9957 73.9339 28.7752 74.3292 28.8141L74.3876 28.3601C74.3357 28.0229 74.42 27.8089 74.8153 27.8413C74.8153 27.6857 74.8154 27.5365 74.8672 27.3809C74.8089 27.0371 74.932 26.8426 75.3015 26.8556C75.3015 26.6999 75.3404 26.5508 75.3533 26.3951L74.057 26.3562C73.7005 26.4016 73.357 26.434 73.37 25.9152C73.007 25.8179 72.4367 26.1876 72.3783 25.4547C71.2019 25.3833 70.0223 25.3833 68.8459 25.4547C68.4829 26.0319 67.8543 25.7855 67.3552 25.9022C66.8769 25.9541 66.3945 25.9541 65.9163 25.9022H64.3154C63.8422 25.9022 63.369 25.9022 62.9024 25.9022C62.5589 25.9022 62.332 25.8309 62.3579 25.4353L61.4181 25.3834H58.5209C58.1774 25.3834 57.8728 25.3445 57.8403 24.897H55.8959C55.682 25.4612 55.1765 25.3834 54.7422 25.3639C54.0163 25.3639 53.0506 25.7466 52.8756 24.4884C52.8756 24.4495 52.6357 24.443 52.5061 24.4171C52.4607 24.8451 52.1885 24.9294 51.8255 24.8776C51.4626 24.8257 51.3783 25.5261 50.8857 25.351L44.9163 25.3964C44.5533 25.9476 43.9311 25.6493 43.4644 25.8503C43.1079 25.9152 42.92 25.7725 42.9524 25.3964H41.9802C41.8635 25.7466 42.3107 26.4016 41.4617 26.3497C41.5394 26.7453 41.3839 26.901 40.982 26.8361C41.0857 27.3809 40.7357 27.3744 40.3339 27.342H39.8413H39.0117C44.2748 18.9663 51.5764 12.0642 60.2326 7.28213C68.8888 2.50006 78.6163 -0.00553312 88.5042 9.17457e-06C103.998 0.00343442 118.858 6.15961 129.819 17.1166C140.781 28.0736 146.948 42.9356 146.967 58.4389Z" fill="#FEAE17"/>
<path d="M95.4849 73.9258C92.1682 63.5264 89.7334 52.8658 88.2061 42.0572C86.5663 30.7468 86.346 17.2056 86.3913 4.89001C86.3913 4.89001 46.4848 85.3788 34.8506 99.4584C54.4238 89.5033 74.6875 80.9704 95.4849 73.9258Z" fill="white"/>
<mask id="mask0_648_11499" style="mask-type:luminance" maskUnits="userSpaceOnUse" x="35" y="4" width="61" height="95">
<path d="M51.4435 72.6223C51.4435 72.6223 47.2629 85.1778 48.2027 86.1246C49.1426 87.0715 83.3583 72.2526 83.3583 72.2526L75.5805 67.3108L86.2166 65.5987C86.2166 65.5987 81.8481 22.7959 81.8481 22.2251C81.8481 21.6544 75.1981 27.3615 75.1981 27.3615L86.4046 4.90295C86.4046 4.90295 86.2166 29.2617 88.6926 44.4632C90.3783 54.4076 92.6508 64.2436 95.4981 73.9193C95.4981 73.9193 69.3129 83.4592 60.1935 87.4541C51.074 91.449 35.2852 98.6801 35.2852 98.6801L51.4435 72.6223Z" fill="white"/>
</mask>
<g mask="url(#mask0_648_11499)">
<path d="M95.4791 11.6153L70.0068 4.89001H95.4791V11.6153Z" fill="white"/>
<path d="M95.4794 12.6983L65.9238 4.89001H70.0072L95.4794 11.6153V12.6983Z" fill="white"/>
<path d="M95.4794 13.7749L61.834 4.89001H65.9238L95.4794 12.6983V13.7749Z" fill="#FEFEFF"/>
<path d="M95.4787 14.8514L58.625 5.12349L58.6833 4.89001H61.8333L95.4787 13.7749V14.8514Z" fill="#FDFEFE"/>
<path d="M95.4788 15.9345L58.3594 6.12875L58.6251 5.12354L95.4788 14.8515V15.9345Z" fill="#FCFDFE"/>
<path d="M95.4789 17.011L58.0938 7.14037L58.3595 6.12866L95.4789 15.9344V17.011Z" fill="#FBFCFD"/>
<path d="M95.4791 18.0875L57.8281 8.1456L58.0939 7.14038L95.4791 17.011V18.0875Z" fill="#FAFCFD"/>
<path d="M95.4792 19.1706L57.5625 9.15733L57.8282 8.14563L95.4792 18.0876V19.1706Z" fill="#F9FBFC"/>
<path d="M95.4793 20.2472L57.2969 10.1626L57.5626 9.15735L95.4793 19.1706V20.2472Z" fill="#F8FBFC"/>
<path d="M95.4794 21.3238L57.0312 11.1743L57.297 10.1626L95.4794 20.2472V21.3238Z" fill="#F7FAFB"/>
<path d="M95.4792 22.4002L56.7588 12.1794L57.031 11.1742L95.4792 21.3237V22.4002Z" fill="#F6F9FB"/>
<path d="M95.4793 23.4833L56.4932 13.1911L56.7589 12.1794L95.4793 22.4002V23.4833Z" fill="#F5F9FA"/>
<path d="M95.4788 24.5599L56.2334 14.1964L56.4927 13.1912L95.4788 23.4833V24.5599Z" fill="#F4F8FA"/>
<path d="M95.4795 25.6364L55.9619 15.2081L56.2341 14.1964L95.4795 24.5599V25.6364Z" fill="#F3F7F9"/>
<path d="M95.4786 26.7195L55.6953 16.2133L55.9611 15.2081L95.4786 25.6365V26.7195Z" fill="#F2F7F9"/>
<path d="M95.4788 27.796L55.4297 17.225L55.6954 16.2133L95.4788 26.7194V27.796Z" fill="#F1F6F8"/>
<path d="M95.4789 28.8725L55.1641 18.2302L55.4298 17.225L95.4789 27.796V28.8725Z" fill="#F0F5F8"/>
<path d="M95.479 29.9556L54.8984 19.2419L55.1642 18.2302L95.479 28.8726V29.9556Z" fill="#EFF5F7"/>
<path d="M95.4791 31.0322L54.6328 20.2472L54.8986 19.2419L95.4791 29.9556V31.0322Z" fill="#EEF4F7"/>
<path d="M95.4792 32.1088L54.3672 21.2589L54.6329 20.2472L95.4792 31.0322V32.1088Z" fill="#EDF4F6"/>
<path d="M95.4793 33.1918L54.1016 22.2641L54.3673 21.2589L95.4793 32.1088V33.1918Z" fill="#ECF3F6"/>
<path d="M95.4795 34.2683L53.8359 23.2757L54.1017 22.264L95.4795 33.1917V34.2683Z" fill="#EBF2F5"/>
<path d="M95.4786 35.3449L53.5693 24.281L53.8351 23.2758L95.4786 34.2683V35.3449Z" fill="#EAF2F5"/>
<path d="M95.4787 36.4215L53.3037 25.2927L53.5695 24.281L95.4787 35.3449V36.4215Z" fill="#E9F1F4"/>
<path d="M95.4788 37.5045L53.0381 26.2979L53.3038 25.2927L95.4788 36.4215V37.5045Z" fill="#E8F0F4"/>
<path d="M95.4789 38.5811L52.7725 27.3097L53.0382 26.298L95.4789 37.5045V38.5811Z" fill="#E7F0F3"/>
<path d="M95.4791 39.6577L52.5068 28.3149L52.7726 27.3097L95.4791 38.5811V39.6577Z" fill="#E6EFF3"/>
<path d="M95.4792 40.7406L52.2412 29.32L52.507 28.3148L95.4792 39.6576V40.7406Z" fill="#E5EEF2"/>
<path d="M95.4793 41.8172L51.9756 30.3318L52.2413 29.3201L95.4793 40.7406V41.8172Z" fill="#E4EEF2"/>
<path d="M95.4794 42.8938L51.71 31.337L51.9757 30.3318L95.4794 41.8172V42.8938Z" fill="#E3EDF1"/>
<path d="M95.4785 43.9704L51.4434 32.3487L51.7091 31.337L95.4785 42.8938V43.9704Z" fill="#E2EDF1"/>
<path d="M95.4787 45.0534L51.1777 33.354L51.4435 32.3488L95.4787 43.9704V45.0534Z" fill="#E1ECF0"/>
<path d="M95.4788 46.1299L50.9121 34.3656L51.1779 33.3539L95.4788 45.0533V46.1299Z" fill="#E0EBF0"/>
<path d="M95.4789 47.2129L50.6465 35.3708L50.9122 34.3656L95.4789 46.1299V47.2129Z" fill="#DFEBEF"/>
<path d="M95.479 48.2895L50.3809 36.3826L50.6466 35.3708L95.479 47.213V48.2895Z" fill="#DEEAEF"/>
<path d="M95.4791 49.3661L50.1152 37.3878L50.381 36.3826L95.4791 48.2895V49.3661Z" fill="#DDE9EE"/>
<path d="M95.4792 50.4427L49.8496 38.3995L50.1154 37.3878L95.4792 49.3661V50.4427Z" fill="#DCE9EE"/>
<path d="M95.4794 51.5256L49.584 39.4046L49.8497 38.3994L95.4794 50.4426V51.5256Z" fill="#DBE8ED"/>
<path d="M95.4795 52.6022L49.3184 40.4164L49.5841 39.4047L95.4795 51.5257V52.6022Z" fill="#DAE7ED"/>
<path d="M95.4786 53.6788L49.0518 41.4216L49.3175 40.4164L95.4786 52.6022V53.6788Z" fill="#D9E7EC"/>
<path d="M95.4787 54.7619L48.7861 42.4333L49.0519 41.4216L95.4787 53.6788V54.7619Z" fill="#D8E6EC"/>
<path d="M95.4788 55.8384L48.5205 43.4386L48.7862 42.4333L95.4788 54.7619V55.8384Z" fill="#D7E6EB"/>
<path d="M95.479 56.9149L48.2549 44.4502L48.5206 43.4385L95.479 55.8383V56.9149Z" fill="#D6E5EB"/>
<path d="M95.4791 57.9979L47.9893 45.4554L48.255 44.4502L95.4791 56.9149V57.9979Z" fill="#D5E4EA"/>
<path d="M95.4792 59.0745L47.7236 46.4671L47.9894 45.4554L95.4792 57.998V59.0745Z" fill="#D4E4EA"/>
<path d="M95.4793 60.1511L47.458 47.4724L47.7237 46.4672L95.4793 59.0746V60.1511Z" fill="#D3E3E9"/>
<path d="M95.4794 61.2277L47.1924 48.4841L47.4581 47.4724L95.4794 60.1511V61.2277Z" fill="#D1E2E9"/>
<path d="M95.4786 62.3108L46.9258 49.4894L47.1915 48.4841L95.4786 61.2277V62.3108Z" fill="#D0E2E8"/>
<path d="M95.4787 63.3872L46.6602 50.4945L46.9259 49.4893L95.4787 62.3107V63.3872Z" fill="#CFE1E8"/>
<path d="M95.4788 64.4638L46.3945 51.5062L46.6603 50.4945L95.4788 63.3872V64.4638Z" fill="#CEE0E7"/>
<path d="M95.4789 65.5469L46.1289 52.5114L46.3946 51.5062L95.4789 64.4638V65.5469Z" fill="#CDE0E7"/>
<path d="M95.479 66.6234L45.8633 53.5232L46.129 52.5115L95.479 65.5469V66.6234Z" fill="#CCDFE6"/>
<path d="M95.4791 67.7L45.5977 54.5284L45.8634 53.5232L95.4791 66.6235V67.7Z" fill="#CBDFE6"/>
<path d="M95.4789 68.783L45.3252 55.54L45.5974 54.5283L95.4789 67.6999V68.783Z" fill="#CADEE5"/>
<path d="M95.479 69.8595L45.0596 56.5453L45.3253 55.54L95.479 68.783V69.8595Z" fill="#C9DDE5"/>
<path d="M95.4795 70.9361L44.8008 57.557L45.06 56.5453L95.4795 69.8596V70.9361Z" fill="#C8DDE4"/>
<path d="M95.4786 72.0192L44.5342 58.5622L44.7999 57.557L95.4786 70.9361V72.0192Z" fill="#C7DCE4"/>
<path d="M95.4794 73.0958L44.2627 59.574L44.5349 58.5623L95.4794 72.0192V73.0958Z" fill="#C6DBE3"/>
<path d="M95.4795 74.1723L43.9971 60.5792L44.2628 59.574L95.4795 73.0958V74.1723Z" fill="#C5DBE3"/>
<path d="M95.4786 75.2488L43.7305 61.5908L43.9962 60.5791L95.4786 74.1723V75.2488Z" fill="#C4DAE2"/>
<path d="M95.4787 76.3319L43.4648 62.596L43.7306 61.5908L95.4787 75.2488V76.3319Z" fill="#C3D9E2"/>
<path d="M95.4789 77.4085L43.1992 63.6078L43.465 62.5961L95.4789 76.3319V77.4085Z" fill="#C2D9E1"/>
<path d="M95.479 78.485L42.9336 64.613L43.1993 63.6078L95.479 77.4085V78.485Z" fill="#C1D8E1"/>
<path d="M95.4791 79.0102L95.3494 79.5291L42.668 65.6246L42.9337 64.6129L95.4791 78.4849V79.0102Z" fill="#C0D8E0"/>
<path d="M42.6715 65.6238L42.4053 66.6334L95.0796 80.5391L95.3458 79.5295L42.6715 65.6238Z" fill="#BFD7E0"/>
<path d="M41.1532 67.0674L40.8818 68.0802L93.7244 82.2525L93.9957 81.2397L41.1532 67.0674Z" fill="#BED6DF"/>
<path d="M42.1383 67.6384L41.8721 68.6479L94.5464 82.5536L94.8126 81.544L42.1383 67.6384Z" fill="#BDD6DF"/>
<path d="M40.6307 69.0999L40.3594 70.1127L93.2019 84.285L93.4732 83.2722L40.6307 69.0999Z" fill="#BCD5DE"/>
<path d="M41.6119 69.6594L41.3457 70.6689L94.0201 84.5746L94.2863 83.565L41.6119 69.6594Z" fill="#BBD4DE"/>
<path d="M41.3424 70.6657L41.0762 71.6753L93.7505 85.5809L94.0167 84.5714L41.3424 70.6657Z" fill="#BAD4DD"/>
<path d="M41.0797 71.6739L40.8135 72.6835L93.4878 86.5891L93.754 85.5795L41.0797 71.6739Z" fill="#B9D3DD"/>
<path d="M40.8102 72.6802L40.5439 73.6898L93.2183 87.5955L93.4845 86.5859L40.8102 72.6802Z" fill="#B8D2DC"/>
<path d="M39.3045 74.1641L39.0332 75.1769L91.8758 89.3492L92.1471 88.3363L39.3045 74.1641Z" fill="#B7D2DC"/>
<path d="M40.277 74.7012L40.0107 75.7108L92.6851 89.6165L92.9513 88.6069L40.277 74.7012Z" fill="#B6D1DB"/>
<path d="M40.0074 75.7077L39.7412 76.7173L92.4156 90.6229L92.6818 89.6134L40.0074 75.7077Z" fill="#B5D1DB"/>
<path d="M39.7437 76.7158L39.4775 77.7253L92.1519 91.631L92.4181 90.6214L39.7437 76.7158Z" fill="#B4D0DA"/>
<path d="M39.4811 77.7221L39.2148 78.7317L91.8892 92.6373L92.1554 91.6278L39.4811 77.7221Z" fill="#B3CFDA"/>
<path d="M39.2174 78.7302L38.9512 79.7397L91.6255 93.6454L91.8917 92.6358L39.2174 78.7302Z" fill="#B2CFD9"/>
<path d="M38.9479 79.7366L38.6816 80.7462L91.356 94.6519L91.6222 93.6423L38.9479 79.7366Z" fill="#B1CED9"/>
<path d="M38.6852 80.7447L38.4189 81.7543L91.0933 95.6599L91.3595 94.6503L38.6852 80.7447Z" fill="#B0CDD8"/>
<path d="M38.4156 81.7576L38.1494 82.7672L90.8238 96.6729L91.09 95.6633L38.4156 81.7576Z" fill="#AFCDD8"/>
<path d="M38.152 82.7657L37.8857 83.7753L90.5601 97.6809L90.8263 96.6713L38.152 82.7657Z" fill="#AECCD7"/>
<path d="M90.5599 97.6814L90.2941 98.6867H90.2812L37.6191 84.7822L37.8849 83.7705L90.5599 97.6814Z" fill="#ADCBD7"/>
<path d="M86.198 98.6867L37.3535 85.7874L37.6193 84.7822L90.2813 98.6867H86.198Z" fill="#ACCBD6"/>
<path d="M82.1073 98.6866L37.0869 86.7991L37.3527 85.7874L86.1971 98.6866H82.1073Z" fill="#ABCAD6"/>
<path d="M78.0241 98.6866L36.8213 87.8043L37.087 86.7991L82.1074 98.6866H78.0241Z" fill="#AACAD5"/>
<path d="M73.9409 98.6866L36.5557 88.816L36.8214 87.8043L78.0242 98.6866H73.9409Z" fill="#A9C9D5"/>
<path d="M69.8511 98.6866L36.29 89.8213L36.5558 88.816L73.941 98.6866H69.8511Z" fill="#A8C8D4"/>
<path d="M65.7679 98.6867L36.0244 90.833L36.2902 89.8213L69.8513 98.6867H65.7679Z" fill="#A7C8D4"/>
<path d="M61.6847 98.6867L35.7588 91.8382L36.0245 90.833L65.7681 98.6867H61.6847Z" fill="#A6C7D3"/>
<path d="M35.292 93.6021L35.7587 91.8381L61.6846 98.6866H35.292V93.6021Z" fill="#A6C7D3"/>
</g>
<path d="M95.4848 73.9258C95.4848 73.9258 98.0774 31.0257 87.1172 8.96924C87.1172 8.96924 127.101 33.3604 136.765 70.3265C136.765 70.307 117.788 65.7155 95.4848 73.9258Z" fill="white"/>
<mask id="mask1_648_11499" style="mask-type:luminance" maskUnits="userSpaceOnUse" x="87" y="8" width="49" height="66">
<path d="M88.2709 9.81228C97.2866 17.3936 103.055 48.9963 103.055 48.9963L107.028 47.9133L107.385 56.4025L113.16 55.5011C113.16 55.5011 110.995 60.7347 115.143 61.0979C119.291 61.4611 135.702 68.1409 135.702 68.1409L130.394 69.3731C118.595 68.3035 106.706 69.8536 95.5755 73.9128L95.5107 73.4329C95.757 68.5235 97.3514 29.6313 87.1172 8.98865L88.2709 9.81228Z" fill="white"/>
</mask>
<g mask="url(#mask1_648_11499)">
<path d="M135.702 22.2381L87.1104 9.41022V8.97571H135.702V22.2381Z" fill="white"/>
<path d="M135.702 23.3147L87.1104 10.4868V9.41028L135.702 22.2382V23.3147Z" fill="white"/>
<path d="M135.702 24.3913L87.1104 11.5634V10.4868L135.702 23.3147V24.3913Z" fill="#FEFEFF"/>
<path d="M135.702 25.4743L87.1104 12.6464V11.5634L135.702 24.3912V25.4743Z" fill="#FDFEFE"/>
<path d="M135.702 26.5508L87.1104 13.7229V12.6464L135.702 25.4742V26.5508Z" fill="#FCFDFE"/>
<path d="M135.702 27.6273L87.1104 14.7995V13.7229L135.702 26.5508V27.6273Z" fill="#FBFCFD"/>
<path d="M135.702 28.7104L87.1104 15.8825V14.7994L135.702 27.6273V28.7104Z" fill="#FAFCFD"/>
<path d="M135.702 29.787L87.1104 16.9591V15.8826L135.702 28.7105V29.787Z" fill="#F9FBFC"/>
<path d="M135.702 30.8635L87.1104 18.0357V16.9591L135.702 29.787V30.8635Z" fill="#F8FBFC"/>
<path d="M135.702 31.9466L87.1104 19.1187V18.0356L135.702 30.8635V31.9466Z" fill="#F7FAFB"/>
<path d="M135.702 33.0231L87.1104 20.1952V19.1187L135.702 31.9465V33.0231Z" fill="#F6F9FB"/>
<path d="M135.702 34.0996L87.1104 21.2717V20.1952L135.702 33.0231V34.0996Z" fill="#F5F9FA"/>
<path d="M135.702 35.1828L87.1104 22.3549V21.2719L135.702 34.0997V35.1828Z" fill="#F4F8FA"/>
<path d="M135.702 36.2593L87.1104 23.4314V22.3549L135.702 35.1827V36.2593Z" fill="#F3F7F9"/>
<path d="M135.702 37.3358L87.1104 24.508V23.4314L135.702 36.2593V37.3358Z" fill="#F2F7F9"/>
<path d="M135.702 38.4124L87.1104 25.591V24.5079L135.702 37.3358V38.4124Z" fill="#F1F6F8"/>
<path d="M135.702 39.4954L87.1104 26.6675V25.5909L135.702 38.4123V39.4954Z" fill="#F0F5F8"/>
<path d="M135.702 40.572L87.1104 27.7442V26.6676L135.702 39.4955V40.572Z" fill="#EFF5F7"/>
<path d="M135.702 41.6486L87.1104 28.8272V27.7441L135.702 40.572V41.6486Z" fill="#EEF4F7"/>
<path d="M135.702 42.7316L87.1104 29.9037V28.8271L135.702 41.6485V42.7316Z" fill="#EDF4F6"/>
<path d="M135.702 43.8081L87.1104 30.9802V29.9037L135.702 42.7316V43.8081Z" fill="#ECF3F6"/>
<path d="M135.702 44.8847L87.1104 32.0633V30.9802L135.702 43.8081V44.8847Z" fill="#EBF2F5"/>
<path d="M135.702 45.9678L87.1104 33.1399V32.0634L135.702 44.8848V45.9678Z" fill="#EAF2F5"/>
<path d="M135.702 47.0443L87.1104 34.2164V33.1399L135.702 45.9678V47.0443Z" fill="#E9F1F4"/>
<path d="M135.702 48.1209L87.1104 35.2995V34.2164L135.702 47.0443V48.1209Z" fill="#E8F0F4"/>
<path d="M135.702 49.2039L87.1104 36.376V35.2994L135.702 48.1208V49.2039Z" fill="#E7F0F3"/>
<path d="M135.702 50.2804L87.1104 37.4525V36.376L135.702 49.2039V50.2804Z" fill="#E6EFF3"/>
<path d="M135.702 51.3571L87.1104 38.5357V37.4526L135.702 50.2805V51.3571Z" fill="#E5EEF2"/>
<path d="M135.702 52.4401L87.1104 39.6122V38.5356L135.702 51.357V52.4401Z" fill="#E4EEF2"/>
<path d="M135.702 53.5166L87.1104 40.6887V39.6122L135.702 52.4401V53.5166Z" fill="#E3EDF1"/>
<path d="M135.702 54.5932L87.1104 41.7718V40.6887L135.702 53.5166V54.5932Z" fill="#E2EDF1"/>
<path d="M135.702 55.6762L87.1104 42.8483V41.7717L135.702 54.5931V55.6762Z" fill="#E1ECF0"/>
<path d="M135.702 56.7528L87.1104 43.9249V42.8484L135.702 55.6763V56.7528Z" fill="#E0EBF0"/>
<path d="M135.702 57.8294L87.1104 45.008V43.9249L135.702 56.7528V57.8294Z" fill="#DFEBEF"/>
<path d="M135.702 58.9124L87.1104 46.0845V45.0079L135.702 57.8293V58.9124Z" fill="#DEEAEF"/>
<path d="M135.702 59.9889L87.1104 47.161V46.0845L135.702 58.9124V59.9889Z" fill="#DDE9EE"/>
<path d="M135.702 61.0655L87.1104 48.2376V47.161L135.702 59.9889V61.0655Z" fill="#DCE9EE"/>
<path d="M135.702 62.1485L87.1104 49.3206V48.2375L135.702 61.0654V62.1485Z" fill="#DBE8ED"/>
<path d="M135.702 63.2251L87.1104 50.3972V49.3207L135.702 62.1486V63.2251Z" fill="#DAE7ED"/>
<path d="M135.702 64.3017L87.1104 51.4803V50.3972L135.702 63.2251V64.3017Z" fill="#D9E7EC"/>
<path d="M135.702 65.3847L87.1104 52.5568V51.4802L135.702 64.3016V65.3847Z" fill="#D8E6EC"/>
<path d="M135.702 66.4612L87.1104 53.6333V52.5568L135.702 65.3846V66.4612Z" fill="#D7E6EB"/>
<path d="M135.702 67.5377L87.1104 54.7099V53.6333L135.702 66.4612V67.5377Z" fill="#D6E5EB"/>
<path d="M135.702 68.6209L87.1104 55.793V54.71L135.702 67.5378V68.6209Z" fill="#D5E4EA"/>
<path d="M135.702 69.6974L87.1104 56.8695V55.793L135.702 68.6209V69.6974Z" fill="#D4E4EA"/>
<path d="M135.702 70.774L87.1104 57.9461V56.8695L135.702 69.6974V70.774Z" fill="#D3E3E9"/>
<path d="M135.702 71.857L87.1104 59.0291V57.946L135.702 70.7739V71.857Z" fill="#D1E2E9"/>
<path d="M135.702 72.9335L87.1104 60.1056V59.0291L135.702 71.8569V72.9335Z" fill="#D0E2E8"/>
<path d="M135.702 73.2254L135.521 73.8999H135.268L87.1104 61.1823V60.1057L135.702 72.9336V73.2254Z" fill="#CFE1E8"/>
<path d="M131.178 73.8999L87.1104 62.2653V61.1823L135.268 73.8999H131.178Z" fill="#CEE0E7"/>
<path d="M127.095 73.8999L87.1104 63.3418V62.2653L131.178 73.8999H127.095Z" fill="#CDE0E7"/>
<path d="M123.011 73.8998L87.1104 64.4184V63.3418L127.095 73.8998H123.011Z" fill="#CCDFE6"/>
<path d="M118.921 73.8998L87.1104 65.5014V64.4183L123.011 73.8998H118.921Z" fill="#CBDFE6"/>
<path d="M114.838 73.8999L87.1104 66.578V65.5015L118.921 73.8999H114.838Z" fill="#CADEE5"/>
<path d="M110.748 73.8999L87.1104 67.6546V66.578L114.838 73.8999H110.748Z" fill="#C9DDE5"/>
<path d="M106.665 73.8999L87.1104 68.7376V67.6545L110.748 73.8999H106.665Z" fill="#C8DDE4"/>
<path d="M102.582 73.8998L87.1104 69.8141V68.7375L106.665 73.8998H102.582Z" fill="#C7DCE4"/>
<path d="M98.4918 73.8998L87.1104 70.8906V69.8141L102.582 73.8998H98.4918Z" fill="#C6DBE3"/>
<path d="M94.4085 73.8999L87.1104 71.9738V70.8907L98.4918 73.8999H94.4085Z" fill="#C5DBE3"/>
<path d="M90.3187 73.8999L87.1104 73.0503V71.9738L94.4085 73.8999H90.3187Z" fill="#C4DAE2"/>
<path d="M87.1104 73.0503L90.3187 73.8999H87.1104V73.0503Z" fill="#C3D9E2"/>
</g>
<path d="M89.327 59.4701C89.327 59.4701 92.0233 69.425 93.4427 72.979C93.4427 72.979 50.0168 87.7654 39.0631 95.872L49.5437 78.6666L44.5724 90.1844C44.5724 90.1844 82.6251 76.2475 89.0159 72.6742L84.7575 69.9763L90.7205 70.3978L89.327 59.4701ZM83.2474 16.8164C82.9622 16.2522 81.6853 17.1018 81.6853 17.1018L85.2372 9.85123C84.3816 17.6725 85.3798 32.3162 85.3798 32.3162C84.2131 28.6196 83.5066 17.3871 83.2474 16.8164ZM17.4733 101.774C20.714 101.547 24.0066 101.047 27.2474 100.477C29.5937 100.081 31.927 99.6205 34.2539 99.1341C34.4353 98.9266 34.6168 98.719 34.7853 98.4856C35.6539 97.422 36.4381 96.2871 37.2418 95.1132C38.8492 92.7591 40.34 90.3271 41.8242 87.8886C44.1381 84.0558 46.3613 80.1582 48.565 76.2475C52.9594 68.4198 57.2177 60.5142 61.4242 52.5828C69.6341 37.0829 77.656 21.4858 85.49 5.79145L85.1659 3.48917C85.1256 3.15809 85.2184 2.82456 85.4238 2.56189C85.6292 2.29921 85.9304 2.12888 86.2613 2.08835C86.4256 2.06844 86.5922 2.08119 86.7516 2.12587C86.911 2.17055 87.06 2.24627 87.1901 2.3487C87.3201 2.45113 87.4287 2.57826 87.5096 2.72277C87.5904 2.86729 87.642 3.02635 87.6613 3.19084L88.4066 9.34538C93.6974 12.7854 98.7514 16.577 103.534 20.6946C108.669 25.0733 113.478 29.8201 117.923 34.8974C122.399 39.9789 126.376 45.48 129.797 51.3246C131.508 54.255 133.038 57.2871 134.38 60.404C135.749 63.871 136.926 67.4108 137.906 71.0074H138.003C139.701 71.0074 141.393 71.2279 143.091 71.3447C143.519 71.3901 143.94 71.403 144.387 71.4679L145.683 71.6754C146.533 71.8246 147.382 71.9154 148.224 72.1164L150.752 72.7325L151.368 72.9076C152.016 73.1022 152.619 73.3227 153.241 73.5562C156.548 74.7133 159.623 76.4504 162.321 78.686C163.694 79.8329 164.926 81.1392 165.99 82.5772C166.546 83.2899 167.053 84.0396 167.507 84.8211C167.74 85.1972 167.921 85.6253 168.122 86.0338C168.324 86.477 168.5 86.9317 168.647 87.3957L169.172 89.0884L167.448 89.2311C166.645 89.3382 165.848 89.4942 165.063 89.698C164.253 89.912 163.449 90.165 162.646 90.4438C161.05 91.0338 159.503 91.7472 158.018 92.5775C155.03 94.2852 152.327 96.4493 150.007 98.9914C147.679 101.576 145.717 104.467 144.173 107.584C143.386 109.148 142.687 110.754 142.08 112.396C141.775 113.214 141.516 114.057 141.231 114.887L140.524 117.28L140.446 117.546C140.386 117.606 140.319 117.658 140.246 117.701L140.148 117.773L139.941 117.909L139.546 118.175L138.722 118.681C138.165 119.005 137.614 119.329 137.044 119.621C136.661 119.822 136.279 120.01 135.883 120.205C135.125 120.574 134.347 120.925 133.563 121.255C131.191 122.245 128.757 123.081 126.278 123.759C123.785 124.41 121.261 124.931 118.714 125.322C116.16 125.704 113.587 125.892 111.014 126.022C105.846 126.187 100.674 125.879 95.5622 125.101C90.9231 124.351 86.3439 123.267 81.8603 121.859C81.4261 121.729 80.9918 121.606 80.564 121.469L76.9279 120.172L73.3372 118.772C70.9714 117.792 68.5928 116.735 66.3437 115.769C61.807 113.767 57.1082 112.155 52.2983 110.95C47.4956 109.706 42.5745 108.976 37.6177 108.771C32.6789 108.596 27.6103 108.894 22.8464 110.289L22.6909 110.354L22.5418 110.269C22.3603 110.172 22.1853 110.081 22.0103 109.971C21.8353 109.861 21.5372 109.686 21.3103 109.524C21.0835 109.361 20.8631 109.219 20.6622 109.05L20.5261 108.953C19.1904 107.963 18.0958 106.684 17.3242 105.211C17.227 105.016 17.1492 104.815 17.065 104.608C16.8385 103.979 16.6862 103.326 16.6113 102.662L16.5205 101.832L17.4733 101.774ZM86.1381 22.3873C86.015 18.0681 85.9761 13.7489 85.989 9.41672L85.6844 7.22469C78.0103 22.6035 70.2131 37.8979 62.2927 53.1081C58.1122 61.059 53.8668 68.9905 49.5113 76.8442C47.327 80.7743 45.1103 84.6849 42.7964 88.5177C40.9622 91.5658 39.115 94.6074 37.0344 97.5258C37.8511 97.1496 38.6677 96.7799 39.4909 96.4168C42.7705 94.7911 46.0696 93.2044 49.3881 91.6566C54.3724 89.3478 59.3955 87.1169 64.4576 84.9832C69.5196 82.8496 74.614 80.7743 79.7474 78.8287C82.34 77.83 84.8937 76.8831 87.4733 75.9557C88.1214 75.7287 88.7696 75.4628 89.4177 75.2683L91.2131 74.6716C92.3474 74.3149 93.5011 73.9777 94.6807 73.6405V73.6015L94.5122 73.0762L94.1881 72.0256L93.54 69.9179C93.1252 68.5171 92.7427 67.1033 92.3733 65.6895C91.6279 62.8619 90.9539 60.0149 90.3252 57.1549C89.0872 51.4413 88.0696 45.6824 87.3307 39.8716C86.5918 34.0608 86.2937 28.237 86.1122 22.4002L86.1381 22.3873ZM95.0566 74.6651C94.065 75.0607 92.8011 75.4045 91.777 75.7806L87.9724 77.2852C85.3798 78.2126 82.8196 79.14 80.2659 80.1257C75.139 82.0713 70.0511 84.1012 64.9955 86.2154C62.7853 87.1363 60.5881 88.0897 58.3974 89.0495L38.6742 98.1937C44.5594 96.8513 50.4057 95.3078 56.2196 93.654C62.5844 91.8122 68.9125 89.8342 75.2038 87.72C81.4844 85.6317 87.6548 83.2257 93.877 80.8456L96.0483 80.022L95.0566 74.6651ZM95.3678 57.4143C95.2446 51.9148 94.9594 46.3893 94.4279 40.9546C93.9241 35.4849 93.0995 30.0495 91.9585 24.6766C91.3944 21.9937 90.6913 19.342 89.852 16.7321C89.5863 15.889 89.2946 15.0524 88.99 14.2288L95.3807 67.3043L95.4131 65.6571C95.4261 62.916 95.4023 60.1727 95.3418 57.4273L95.3678 57.4143ZM86.9418 16.343C86.9872 18.3469 87.0455 20.3509 87.1298 22.3484C87.3696 28.1851 87.7779 33.9765 88.5103 39.7354C89.2427 45.4943 90.3381 51.2144 91.6085 56.8825C92.2566 59.723 92.9372 62.5441 93.6955 65.3134L93.8122 65.7349L86.9418 16.343ZM132.701 61.1304C131.429 58.0513 129.972 55.0518 128.339 52.1482C125.053 46.3379 121.22 40.8546 116.893 35.7729C112.564 30.6697 107.87 25.8882 102.847 21.4664C98.307 17.4327 93.5115 13.6959 88.4909 10.2793L88.6335 11.505C89.3205 13.1458 89.9298 14.819 90.4807 16.5116C91.3241 19.1438 92.0336 21.817 92.6066 24.5209C93.752 29.9217 94.5787 35.3853 95.0826 40.8833C95.6205 46.3698 95.9057 51.9083 96.0289 57.3883C96.085 60.1468 96.1002 62.903 96.0742 65.6571C96.0742 67.0384 96.0289 68.4133 95.99 69.7947L95.9187 71.857V71.9673L96.0677 73.2319C96.0677 73.2319 99.464 72.1099 100.346 71.87C102.031 71.3771 103.709 70.8518 105.433 70.4821C108.846 69.6535 112.311 69.0555 115.804 68.6922C119.314 68.3128 122.846 68.1698 126.375 68.2642C129.099 68.3159 131.818 68.5325 134.516 68.9127L135.248 68.6598C134.531 66.109 133.675 63.5997 132.682 61.1433L132.701 61.1304ZM96.2103 74.2566C96.2103 74.2566 96.8585 77.4992 97.3057 79.568C102.4 77.6613 107.559 75.8325 112.861 74.3474C119.377 72.4735 126.09 71.3721 132.863 71.0658L134.341 71.0074C133.761 70.8349 133.173 70.6942 132.578 70.5859C130.506 70.2431 128.415 70.0266 126.317 69.9374C122.862 69.7388 119.397 69.7735 115.946 70.0411C112.485 70.2892 109.044 70.7724 105.647 71.4874C103.943 71.7986 96.2103 74.2566 96.2103 74.2566ZM18.5816 104.309C23.7668 104.095 29.127 103.538 34.377 102.857C39.627 102.176 44.9613 101.307 50.2048 100.263C60.7122 98.2514 71.0988 95.6532 81.3159 92.4802C91.589 89.4516 101.506 85.2426 111.831 82.1038C116.987 80.4963 122.274 79.3483 127.633 78.673C130.783 78.3036 133.957 78.167 137.128 78.2645C138.69 78.3034 140.246 78.4136 141.795 78.5822L142.598 78.7055C137.629 78.2598 132.624 78.41 127.691 79.1529C122.401 79.9743 117.196 81.2656 112.135 83.0117C101.998 86.4035 92.1983 90.9237 81.9511 94.2637C71.7121 97.7095 61.2888 100.581 50.7298 102.863C49.2736 103.187 47.8109 103.497 46.3418 103.791C56.064 105.613 62.7983 104.309 71.49 102.072C72.0092 107.078 73.7936 111.87 76.6751 115.996L78.2502 116.599L81.7761 117.799C86.4935 119.355 91.3176 120.567 96.2103 121.424C101.079 122.296 106.01 122.768 110.956 122.838C115.918 122.879 120.873 122.444 125.753 121.541C128.202 121.096 130.621 120.505 132.999 119.77C133.958 119.491 134.898 119.167 135.832 118.817C136.065 118.733 136.311 118.648 136.545 118.551C137.128 118.331 137.711 118.104 138.288 117.857L139.137 117.474L139.558 117.273L139.766 117.17L139.87 117.111C140.045 116.288 140.213 115.483 140.408 114.673C140.602 113.862 140.874 112.954 141.146 112.079C141.679 110.369 142.309 108.691 143.033 107.053C144.474 103.736 146.367 100.635 148.658 97.837C150.977 95.0088 153.726 92.5641 156.806 90.593C158.358 89.6133 159.986 88.7589 161.673 88.0378C162.529 87.6876 163.391 87.3893 164.266 87.0909C164.571 86.9872 164.869 86.9029 165.167 86.8186C165.078 86.6471 164.981 86.4805 164.875 86.3192C164.483 85.6695 164.05 85.0457 163.579 84.4514C162.595 83.2627 161.494 82.1763 160.293 81.2088C157.805 79.2953 155.019 77.8033 152.048 76.7923C151.296 76.5588 150.558 76.267 149.786 76.0724L148.633 75.8001L147.466 75.5147C146.682 75.3331 145.884 75.2488 145.1 75.1061L143.914 74.9181C143.512 74.8597 143.11 74.8402 142.702 74.7948C141.088 74.6651 139.461 74.4187 137.847 74.4187L135.417 74.3409C134.607 74.302 133.796 74.3733 132.986 74.3863C126.467 74.6044 119.997 75.5927 113.71 77.3306C107.371 79.0297 101.143 81.2542 94.914 83.55C88.6853 85.8458 82.4307 88.2129 76.0594 90.2557C69.6881 92.2986 63.3298 94.2247 56.9066 96.0082C50.4835 97.7916 43.9437 99.3222 37.4233 100.645C34.1825 101.294 30.864 101.903 27.5585 102.403C24.5316 102.85 21.5242 103.246 18.4326 103.447C18.463 103.737 18.5129 104.025 18.5816 104.309ZM96.4242 72.2526C96.4242 72.2526 98.9844 33.7235 89.8974 12.9706C89.8974 12.9706 100.968 37.2775 99.4057 61.1628L105.933 53.7825L100.397 65.456L108.778 59.9306L104.241 66.7531C112.617 66.0963 121.038 66.2875 129.376 67.3238C129.376 67.3238 104.371 67.006 96.4242 72.2526Z" fill="#04002D"/>
<path d="M174.974 120.185C172.271 117.403 168.609 115.646 164.831 114.595C160.99 113.598 157.007 113.262 153.054 113.603C149.108 113.962 145.216 114.767 141.452 116.002C140.519 116.307 139.579 116.651 138.665 116.962C137.751 117.273 136.889 117.611 135.994 117.935C134.212 118.583 132.41 119.135 130.615 119.68C128.819 120.224 127.005 120.691 125.183 121.074C123.362 121.456 121.547 121.852 119.713 122.111C116.068 122.663 112.379 122.88 108.694 122.76C101.261 122.414 93.904 121.106 86.8065 118.869C83.2028 117.799 79.6315 116.567 76.0926 115.231C74.3167 114.569 72.5472 113.886 70.7843 113.181C69.9028 112.831 69.0278 112.461 68.1463 112.105L66.85 111.56L65.463 111.022C61.7754 109.525 57.968 108.343 54.0815 107.487C50.2014 106.631 46.2501 106.138 42.2787 106.015C34.3525 105.713 26.4459 106.998 19.0232 109.796C15.359 111.183 11.8541 112.959 8.56852 115.094C6.93459 116.159 5.37142 117.329 3.88889 118.596C3.16296 119.245 2.45001 119.894 1.7889 120.613C1.10489 121.304 0.504461 122.072 0 122.903C0.623621 122.183 1.32095 121.531 2.08055 120.957C2.81944 120.354 3.6037 119.816 4.39444 119.284C5.97613 118.232 7.62366 117.284 9.32686 116.443C12.6983 114.743 16.2309 113.383 19.8722 112.384C23.4694 111.343 27.1599 110.659 30.8907 110.341C34.5974 110.013 38.3257 110.013 42.0324 110.341C49.4301 111.039 56.672 112.897 63.4926 115.847L68.7815 118.104C70.5704 118.862 72.3722 119.589 74.1806 120.302C77.8167 121.703 81.4982 123 85.2574 124.128C89.0327 125.261 92.8695 126.177 96.7491 126.872C100.67 127.568 104.641 127.935 108.623 127.968C116.586 127.941 124.483 126.521 131.956 123.772C133.804 123.123 135.631 122.41 137.427 121.651L142.696 119.401C146.143 117.975 149.736 116.933 153.41 116.294C157.088 115.632 160.848 115.568 164.545 116.106C166.408 116.383 168.235 116.859 169.996 117.526C171.777 118.164 173.454 119.06 174.974 120.185Z" fill="#04002D"/>
<path d="M46.3418 103.791C58.7992 102.221 80.9011 98.7255 103.988 89.7629C127.075 80.8002 144.731 85.3594 144.731 85.3594C139.364 90.9108 136.882 98.7125 136.091 106.404C135.718 110.535 135.627 114.687 135.819 118.83C136.052 118.746 136.298 118.661 136.532 118.564C137.115 118.343 137.698 118.117 138.275 117.87L139.124 117.487L139.546 117.286L139.753 117.183L139.857 117.124C140.032 116.301 140.2 115.496 140.395 114.686C140.589 113.875 140.861 112.967 141.133 112.092C141.666 110.382 142.296 108.704 143.02 107.066C144.464 103.744 146.362 100.638 148.658 97.837C150.977 95.0088 153.726 92.5641 156.806 90.593C158.358 89.6133 159.986 88.7589 161.673 88.0378C162.529 87.6876 163.391 87.3892 164.266 87.0909C164.571 86.9872 164.869 86.9028 165.167 86.8185C165.078 86.6471 164.981 86.4805 164.875 86.3192C164.483 85.6695 164.05 85.0456 163.579 84.4514C162.595 83.2627 161.494 82.1763 160.293 81.2088C157.805 79.2953 155.019 77.8033 152.048 76.7923C151.296 76.5588 150.558 76.267 149.786 76.0724L148.633 75.8C147.692 76.9901 146.965 78.3355 146.487 79.7755C145.25 79.231 143.94 78.8705 142.598 78.7055C137.629 78.2598 132.624 78.41 127.691 79.1529C122.401 79.9743 117.196 81.2656 112.135 83.0117C101.998 86.4035 92.1983 90.9237 81.9511 94.2636C71.7121 97.7095 61.2888 100.581 50.7298 102.863C49.2736 103.209 47.8109 103.518 46.3418 103.791Z" fill="#004560"/>
<path d="M27.5067 102.403C30.8122 101.903 34.1048 101.307 37.3715 100.645C43.9308 99.3222 50.4317 97.7765 56.8743 96.0082C63.3169 94.2399 69.7011 92.3224 76.0271 90.2558C82.3983 88.2129 88.653 85.8587 94.8817 83.55C101.11 81.2412 107.339 79.0103 113.678 77.3306C119.975 75.5836 126.456 74.5888 132.986 74.3668C133.797 74.3668 134.607 74.2825 135.417 74.3214L137.847 74.3992C139.474 74.3992 141.088 74.6457 142.702 74.7754C143.11 74.8208 143.512 74.8402 143.914 74.8986L145.1 75.0867C145.884 75.2294 146.682 75.3137 147.466 75.4953L148.633 75.7806C147.692 76.9706 146.966 78.316 146.487 79.7561C145.25 79.2115 143.94 78.851 142.598 78.686L143.739 78.8027C143.091 78.712 142.443 78.6341 141.795 78.5628C140.247 78.3589 138.689 78.2528 137.128 78.245C133.957 78.1476 130.783 78.2841 127.633 78.6536C122.275 79.3288 116.987 80.4769 111.831 82.0843C101.506 85.2232 91.5891 89.4321 81.3159 92.4608C71.0952 95.6452 60.7043 98.2542 50.1919 100.276C44.9484 101.307 39.6595 102.156 34.3641 102.87C29.0687 103.583 23.7798 104.108 18.5687 104.322C18.5037 104.034 18.4583 103.741 18.4326 103.447C21.4919 103.246 24.4993 102.85 27.5067 102.403ZM144.724 85.3399C139.358 90.8913 136.875 98.6931 136.084 106.385C135.712 110.516 135.621 114.667 135.812 118.81C134.879 119.161 133.939 119.459 132.98 119.764C130.609 120.5 128.195 121.093 125.753 121.541C120.873 122.444 115.918 122.879 110.956 122.838C106.01 122.768 101.079 122.296 96.2104 121.424C91.3242 120.566 86.5067 119.354 81.7956 117.799L78.2697 116.599L76.6947 115.996C73.8132 111.87 72.0287 107.078 71.5095 102.072C63.3428 104.309 55.0076 105.963 46.3613 103.791C58.7993 102.221 80.9011 98.7255 103.988 89.7629C127.075 80.8002 144.744 85.3399 144.744 85.3399H144.724Z" fill="#005F8C"/>
<path d="M143.766 78.8027C143.118 78.7119 142.469 78.6341 141.821 78.5627L142.625 78.686L143.766 78.8027Z" fill="#0E0250"/>
<path d="M152.703 12.3999L152.431 12.1988L152.288 12.0951L152.223 12.0432C152.169 12.008 152.113 11.9755 152.055 11.9459C151.802 11.8275 151.519 11.7912 151.245 11.8421C151.109 11.8679 150.978 11.9138 150.856 11.9783L150.668 12.0821L149.482 12.7306L148.308 13.431L147.732 13.7877L147.608 13.8656L147.492 13.7877L146.908 13.431L145.735 12.7306C145.346 12.5036 144.951 12.2702 144.549 12.0821L144.368 11.9848C144.245 11.9145 144.111 11.8662 143.972 11.8421C143.7 11.7919 143.418 11.8306 143.169 11.9524C143.109 11.978 143.052 12.0107 143 12.0497L142.929 12.1016L142.793 12.1988L142.514 12.4064C141.032 13.4916 139.621 14.67 138.288 15.9344C140.002 15.2731 141.671 14.5019 143.285 13.6256L143.59 13.4635L143.655 13.431H143.687C144.057 13.6969 144.433 13.9499 144.808 14.2093L145.943 14.9745L146.513 15.3442L146.798 15.5258L146.947 15.6166L147.161 15.7009C147.306 15.7472 147.457 15.7713 147.608 15.7722C147.762 15.7712 147.915 15.7472 148.062 15.7009C148.134 15.6773 148.203 15.6469 148.27 15.6101C148.322 15.5865 148.372 15.5583 148.419 15.5258L148.71 15.3442L149.281 14.968L150.415 14.2093C150.791 13.9499 151.167 13.6969 151.536 13.4245L151.601 13.457L151.899 13.6191C153.516 14.4942 155.188 15.2654 156.903 15.9279C155.579 14.6645 154.176 13.4862 152.703 12.3999Z" fill="#DFE1E1"/>
<path d="M161.927 20.0396L161.654 19.832L161.512 19.7347L161.447 19.6829C161.394 19.6453 161.337 19.6127 161.278 19.5856C161.026 19.4654 160.743 19.4268 160.468 19.4753C160.331 19.4993 160.199 19.5476 160.079 19.618L159.891 19.7153C159.496 19.9358 159.101 20.1693 158.705 20.3962L157.532 21.0902L156.955 21.4533L156.832 21.5247L156.715 21.4533L156.132 21.0902L154.959 20.3898C154.564 20.1628 154.175 19.9358 153.773 19.7412L153.591 19.6375C153.467 19.573 153.334 19.5271 153.196 19.5013C152.924 19.449 152.642 19.4854 152.392 19.605L152.217 19.7023L152.152 19.7542L152.016 19.858L151.738 20.059C150.253 21.1429 148.841 22.3236 147.512 23.5935C149.225 22.9322 150.895 22.1611 152.509 21.2847L152.814 21.1226L152.872 21.0902H152.911C153.28 21.3626 153.656 21.6155 154.032 21.8749L155.166 22.6337L155.737 23.0033L156.022 23.1914L156.171 23.2757L156.385 23.3665C156.529 23.4128 156.68 23.4369 156.832 23.4378C156.986 23.4347 157.139 23.4084 157.286 23.36C157.357 23.3387 157.427 23.3104 157.493 23.2757C157.565 23.2757 157.636 23.1914 157.642 23.1914L157.927 23.0033L158.504 22.6337L159.639 21.8749C160.015 21.6155 160.39 21.3561 160.76 21.0902H160.825L161.123 21.2523C162.741 22.1269 164.412 22.9002 166.127 23.5675C164.802 22.3042 163.399 21.1258 161.927 20.0396Z" fill="#DFE1E1"/>
</svg>
