<svg width="70" height="88" viewBox="0 0 70 88" fill="none" xmlns="http://www.w3.org/2000/svg">
    <g id="icon-footer-emblem-white" clip-path="url(#clip0_1495_7302)">
      <path fill-rule="evenodd" clip-rule="evenodd" d="M39.4707 0.0913906C39.4955 17.1156 52.3023 32.4794 69.587 31.3256C69.5882 31.3256 69.5894 31.3248 69.5894 31.3232V0.0881348H39.4744C39.4727 0.0881348 39.4707 0.0897627 39.4707 0.0913906Z" fill="white"></path>
      <path fill-rule="evenodd" clip-rule="evenodd" d="M30.4141 51.8134C30.4141 41.9979 38.3713 34.0415 48.1867 34.0415C58.0022 34.0415 65.959 41.9979 65.959 51.8134C65.959 61.6292 58.0022 69.586 48.1867 69.586C38.3713 69.586 30.4141 61.6292 30.4141 51.8134Z" fill="white"></path>
      <path fill-rule="evenodd" clip-rule="evenodd" d="M32.7802 0.0881348C34.5049 34.2656 22.2232 60.0106 0.0917969 69.8065V0.0881348H32.7802Z" fill="white"></path>
      <path fill-rule="evenodd" clip-rule="evenodd" d="M0.0917969 87.7039V80.0601H4.9222V81.4719H1.58011V83.3586H4.55552V84.7277H1.59069V87.7039H0.0917969Z" fill="white"></path>
      <path fill-rule="evenodd" clip-rule="evenodd" d="M8.58776 83.8225C8.42619 83.7899 8.28578 83.7789 8.15637 83.7789C7.4234 83.7789 6.78729 84.1346 6.78729 85.2778V87.7038H5.35352V82.3993H6.74416V83.1859C7.0677 82.4855 7.80067 82.3557 8.25363 82.3557C8.37206 82.3557 8.47991 82.3671 8.58776 82.3777V83.8225Z" fill="white"></path>
      <path fill-rule="evenodd" clip-rule="evenodd" d="M10.5721 84.6523L11.8768 84.4582C12.1788 84.415 12.2757 84.2645 12.2757 84.0813C12.2757 83.7041 11.9847 83.3911 11.3807 83.3911C10.7556 83.3911 10.4105 83.7903 10.3678 84.2535L9.09556 83.984C9.18143 83.1538 9.94655 82.2373 11.3697 82.2373C13.0522 82.2373 13.6769 83.186 13.6769 84.2535V86.863C13.6769 87.1426 13.7095 87.5207 13.7424 87.7034H12.4271C12.3941 87.5634 12.3725 87.272 12.3725 87.0677C12.1035 87.4881 11.5968 87.8544 10.8093 87.8544C9.67754 87.8544 8.9873 87.0889 8.9873 86.2586C8.9873 85.31 9.68853 84.7817 10.5721 84.6523ZM12.2757 85.5582V85.321L11.0792 85.5045C10.7125 85.5582 10.4211 85.7629 10.4211 86.1724C10.4211 86.4853 10.6478 86.7869 11.1117 86.7869C11.7153 86.7869 12.2757 86.4959 12.2757 85.5582Z" fill="white"></path>
      <path fill-rule="evenodd" clip-rule="evenodd" d="M16.2326 87.7037H14.7988V82.3992H16.1899V83.0565C16.513 82.5066 17.1491 82.2588 17.7205 82.2588C19.0359 82.2588 19.6398 83.1973 19.6398 84.3612V87.7037H18.2056V84.6091C18.2056 84.0161 17.9146 83.553 17.2248 83.553C16.5989 83.553 16.2326 84.0377 16.2326 84.6526V87.7037Z" fill="white"></path>
      <path fill-rule="evenodd" clip-rule="evenodd" d="M23.791 84.6308L25.9582 87.7039H24.2008L22.7992 85.6772L22.2062 86.3023V87.7039H20.7725V79.8977H22.2062V84.372L24.0389 82.3994H25.915L23.791 84.6308Z" fill="white"></path>
      <path fill-rule="evenodd" clip-rule="evenodd" d="M33.4743 85.9571H30.3695L29.7334 87.7038H28.1592L31.0919 80.0596H32.817L35.7277 87.7038H34.1104L33.4743 85.9571ZM30.8652 84.5986H32.9786L31.9217 81.709L30.8652 84.5986Z" fill="white"></path>
      <path fill-rule="evenodd" clip-rule="evenodd" d="M37.6906 87.7037H36.2568V82.3992H37.6475V83.0565C37.9706 82.5066 38.6067 82.2588 39.1785 82.2588C40.4939 82.2588 41.0974 83.1973 41.0974 84.3612V87.7037H39.6636V84.6091C39.6636 84.0161 39.3722 83.553 38.6824 83.553C38.0569 83.553 37.6906 84.0377 37.6906 84.6526V87.7037Z" fill="white"></path>
      <path fill-rule="evenodd" clip-rule="evenodd" d="M47.2866 86.7441C47.2866 87.0998 47.3081 87.4881 47.3297 87.7038H45.9602C45.9387 87.5959 45.9065 87.3371 45.9065 87.0892C45.6693 87.5092 45.1304 87.8328 44.4186 87.8328C42.9095 87.8328 41.8311 86.6469 41.8311 85.0405C41.8311 83.4883 42.877 82.2694 44.3755 82.2694C45.292 82.2694 45.7234 82.6471 45.874 82.9275V79.8979H47.2866V86.7441ZM44.5912 86.55C45.3245 86.55 45.8959 85.9896 45.8959 85.0299C45.8959 84.0813 45.3245 83.5526 44.5912 83.5526C43.8582 83.5526 43.2758 84.0918 43.2758 85.0405C43.2758 85.9896 43.8366 86.55 44.5912 86.55Z" fill="white"></path>
      <path fill-rule="evenodd" clip-rule="evenodd" d="M54.4352 79.8977C56.5161 79.8977 58.3703 81.4182 58.3703 83.8873C58.3703 86.3454 56.5161 87.8651 54.4352 87.8651C52.3653 87.8651 50.5107 86.3454 50.5107 83.8873C50.5107 81.4182 52.3653 79.8977 54.4352 79.8977ZM54.4352 86.4207C55.6211 86.4207 56.8286 85.6015 56.8286 83.8763C56.8286 82.1511 55.6211 81.3319 54.4352 81.3319C53.2603 81.3319 52.0528 82.1511 52.0528 83.8763C52.0528 85.6015 53.2603 86.4207 54.4352 86.4207Z" fill="white"></path>
      <path fill-rule="evenodd" clip-rule="evenodd" d="M60.4959 84.6523L61.8003 84.4582C62.1026 84.415 62.1995 84.2645 62.1995 84.0813C62.1995 83.7041 61.9085 83.3911 61.305 83.3911C60.6794 83.3911 60.3343 83.7903 60.2912 84.2535L59.019 83.984C59.1053 83.1538 59.8704 82.2373 61.2936 82.2373C62.976 82.2373 63.6007 83.186 63.6007 84.2535V86.863C63.6007 87.1426 63.6333 87.5207 63.6654 87.7034H62.3509C62.3179 87.5634 62.2968 87.272 62.2968 87.0677C62.0274 87.4881 61.5203 87.8544 60.7332 87.8544C59.6014 87.8544 58.9111 87.0889 58.9111 86.2586C58.9111 85.31 59.6124 84.7817 60.4959 84.6523ZM62.1995 85.5582V85.321L61.0026 85.5045C60.6363 85.5582 60.3449 85.7629 60.3449 86.1724C60.3449 86.4853 60.5716 86.7869 61.0356 86.7869C61.6387 86.7869 62.1995 86.4959 62.1995 85.5582Z" fill="white"></path>
      <path fill-rule="evenodd" clip-rule="evenodd" d="M67.7416 84.6308L69.9088 87.7039H68.151L66.7494 85.6772L66.1564 86.3023V87.7039H64.7227V79.8977H66.1564V84.372L67.9895 82.3994H69.8656L67.7416 84.6308Z" fill="white"></path>
    </g>
    <defs>
      <clipPath id="clip0_1495_7302">
        <rect width="70" height="87.907" fill="white"></rect>
      </clipPath>
    </defs>
  </svg>