<svg width="140" height="16" viewBox="0 0 140 16" fill="none" xmlns="http://www.w3.org/2000/svg" xmlns:xlink="http://www.w3.org/1999/xlink">
    <g id="icon-header-logo">
      <path d="M0 0.368286V15.6726H2.98721V9.73913H8.96163V6.99743H2.98721V3.19181H9.69821V0.368286H0Z" fill="#050606"></path>
      <path d="M17.0231 7.89771C16.6957 7.81587 16.4093 7.81587 16.1638 7.81587C14.6906 7.81587 13.4221 8.51153 13.4221 10.8031V15.6726H10.5576V5.03326H13.3402V6.62917C13.995 5.23786 15.4681 4.95142 16.3684 4.95142C16.6139 4.95142 16.8185 4.99234 17.0231 4.99234V7.89771Z" fill="#070808"></path>
      <path d="M20.9924 9.57551L23.6113 9.1663C24.2251 9.08446 24.4297 8.75709 24.4297 8.42972C24.4297 7.69315 23.8568 7.03842 22.6292 7.03842C21.3606 7.03842 20.665 7.85684 20.5831 8.75709L18.0461 8.22512C18.2097 6.54737 19.7647 4.70593 22.5883 4.70593C25.9438 4.70593 27.2123 6.5883 27.2123 8.75709V13.9949C27.2123 14.5678 27.2941 15.3044 27.3351 15.6727H24.7161C24.6343 15.3862 24.5934 14.8134 24.5934 14.4041C24.0614 15.2635 23.0384 16.0001 21.4425 16.0001C19.1918 16.0001 17.8005 14.486 17.8005 12.8082C17.8415 10.885 19.2328 9.82103 20.9924 9.57551ZM24.4297 11.376V10.9259L22.0154 11.2942C21.2788 11.4169 20.7059 11.8261 20.7059 12.6446C20.7059 13.2584 21.156 13.8722 22.0972 13.8722C23.2839 13.8313 24.4297 13.2584 24.4297 11.376Z" fill="#080909"></path>
      <path d="M32.3273 15.6727H29.4629V5.03328H32.2455V6.34273C32.9002 5.23787 34.1688 4.74683 35.3145 4.74683C37.9335 4.74683 39.1611 6.62919 39.1611 8.96167V15.6727H36.2967V9.45271C36.2967 8.26601 35.7238 7.32484 34.3325 7.32484C33.0639 7.32484 32.3273 8.30693 32.3273 9.53455V15.6727Z" fill="#080909"></path>
      <path d="M41.4526 0.0408936V15.6726H44.3171V12.89L45.5038 11.6215L48.3273 15.6726H51.8465L47.5089 9.5345L51.7647 5.07415H48L44.3171 9.00253V0.0408936H41.4526Z" fill="black"></path>
      <path d="M66.9053 12.1944H60.6853L59.4168 15.7135H56.2659L62.1584 0.40918H65.5958L71.4475 15.7135H68.2147L66.9053 12.1944ZM61.6674 9.45266H65.8822L63.7544 3.68284L61.6674 9.45266Z" fill="#050606"></path>
      <path d="M75.3351 15.6727H72.4707V5.03328H75.2533V6.34273C75.908 5.23787 77.1766 4.74683 78.3224 4.74683C80.9413 4.74683 82.1689 6.62919 82.1689 8.96167V15.6727H79.3044V9.45271C79.3044 8.26601 78.7316 7.32484 77.3403 7.32484C76.0717 7.32484 75.3351 8.30693 75.3351 9.53455V15.6727Z" fill="#050606"></path>
      <path d="M94.5678 13.7494C94.5678 14.445 94.6088 15.2225 94.6497 15.6726H91.908C91.8671 15.468 91.7852 14.9361 91.7852 14.445C91.2942 15.3044 90.2302 15.9182 88.798 15.9182C85.7699 15.9182 83.6011 13.5448 83.6011 10.312C83.6011 7.20205 85.688 4.7468 88.7162 4.7468C90.5576 4.7468 91.4169 5.48338 91.7034 6.05627V0H94.5269V13.7494H94.5678ZM89.1663 13.3811C90.6394 13.3811 91.7852 12.2762 91.7852 10.3529C91.7852 8.47059 90.6394 7.40665 89.1663 7.40665C87.6932 7.40665 86.5474 8.4706 86.5474 10.3939C86.5474 12.2353 87.6522 13.3811 89.1663 13.3811Z" fill="#070808"></path>
      <path d="M108.89 0.0408936C113.064 0.0408936 116.788 3.06903 116.788 8.02043C116.788 12.9309 113.064 16 108.89 16C104.757 16 101.033 12.9718 101.033 8.02043C101.033 3.10995 104.757 0.0408936 108.89 0.0408936ZM108.89 13.1355C111.263 13.1355 113.678 11.4987 113.678 8.02043C113.678 4.58309 111.263 2.90534 108.89 2.90534C106.517 2.90534 104.102 4.54217 104.102 8.02043C104.143 11.4578 106.558 13.1355 108.89 13.1355Z" fill="#070808"></path>
      <path d="M121.043 9.57551L123.662 9.1663C124.276 9.08446 124.481 8.75709 124.481 8.42972C124.481 7.69315 123.908 7.03842 122.68 7.03842C121.412 7.03842 120.716 7.85684 120.634 8.75709L118.097 8.22512C118.261 6.54737 119.816 4.70593 122.639 4.70593C125.995 4.70593 127.263 6.5883 127.263 8.75709V13.9949C127.263 14.5678 127.345 15.3044 127.386 15.6727H124.767C124.685 15.3862 124.644 14.8134 124.644 14.4041C124.112 15.2635 123.089 16.0001 121.494 16.0001C119.243 16.0001 117.852 14.486 117.852 12.8082C117.852 10.885 119.284 9.82103 121.043 9.57551ZM124.44 11.376V10.9259L122.025 11.2942C121.289 11.4169 120.716 11.8261 120.716 12.6446C120.716 13.2584 121.166 13.8722 122.107 13.8722C123.335 13.8313 124.44 13.2584 124.44 11.376Z" fill="#070808"></path>
      <path d="M129.514 0.0408936V15.6726H132.379V12.89L133.565 11.6215L136.389 15.6726H139.908L135.57 9.5345L139.826 5.07415H136.061L132.379 9.00253V0.0408936H129.514Z" fill="#070808"></path>
    </g>
  </svg>